<svg width="54" height="54" viewBox="0 0 54 54" fill="none" xmlns="http://www.w3.org/2000/svg">
<g id="account">
<path id="Path" d="M27.0003 54.0012C12.078 54.0012 0 41.9084 0 27.0013C0 12.0785 12.0759 0.000976562 27.0003 0.000976562C41.9231 0.000976562 54.0002 12.0769 54.0002 27.0013C54.0002 41.9228 41.9062 54.0012 27.0003 54.0012Z" fill="#66A9DF"/>
<path id="Path_2" d="M27 0V54.0002C41.9059 54.0002 53.9999 41.9219 53.9999 27.0003C53.9999 12.0763 41.9228 0 27 0Z" fill="#4F84CF"/>
<path id="Path_3" d="M26.9994 33.3281C19.1431 33.3281 11.6523 36.7625 6.17773 44.1882C17.0795 57.3658 37.2584 57.2533 48.0131 43.953C45.3574 41.3113 39.3757 33.3281 26.9994 33.3281Z" fill="#D6F3FE"/>
<path id="Path_4" d="M48.0137 43.953C42.9363 50.2313 35.3181 53.9998 27 53.9998V33.3281C39.3767 33.3281 45.358 41.3121 48.0137 43.953Z" fill="#BDECFC"/>
<path id="Path_5" d="M27.0001 28.5823C21.7658 28.5823 17.5078 24.3239 17.5078 19.09V15.9259C17.5078 10.6919 21.7658 6.43359 27.0001 6.43359C32.2341 6.43359 36.4924 10.6919 36.4924 15.9259V19.09C36.4924 24.3239 32.2341 28.5823 27.0001 28.5823Z" fill="#D6F3FE"/>
<path id="Path_6" d="M27 6.43359V28.5823C32.2344 28.5823 36.4923 24.3244 36.4923 19.09V15.9259C36.4923 10.6915 32.2344 6.43359 27 6.43359Z" fill="#BDECFC"/>
</g>
</svg>
