<svg width="12" height="15" viewBox="0 0 12 15" fill="none" xmlns="http://www.w3.org/2000/svg">
<path d="M5.25 10.7197V0.375C5.25 0.167893 5.41789 0 5.625 0C5.83211 0 6 0.167893 6 0.375V10.7197L8.35983 8.35983C8.50628 8.21339 8.74372 8.21339 8.89017 8.35983C9.03661 8.50628 9.03661 8.74372 8.89017 8.89017L5.89017 11.8902C5.74372 12.0366 5.50628 12.0366 5.35983 11.8902L2.35984 8.89017C2.21339 8.74372 2.21339 8.50628 2.35984 8.35983C2.50628 8.21339 2.74372 8.21339 2.89016 8.35983L5.25 10.7197ZM10.5 5.25H7.875C7.66789 5.25 7.5 5.08211 7.5 4.875C7.5 4.66789 7.66789 4.5 7.875 4.5H10.875C11.0821 4.5 11.25 4.66789 11.25 4.875V14.625C11.25 14.8321 11.0821 15 10.875 15H0.375C0.167893 15 0 14.8321 0 14.625V4.875C0 4.66789 0.167893 4.5 0.375 4.5H3.375C3.58211 4.5 3.75 4.66789 3.75 4.875C3.75 5.08211 3.58211 5.25 3.375 5.25H0.75V14.25H10.5V5.25Z" fill="#2B3C4E"/>
</svg>
