<svg width="12" height="16" viewBox="0 0 12 16" fill="none" xmlns="http://www.w3.org/2000/svg">
<path d="M10.2316 15.7895H0V0.631579H3.15789V0H8.8421V0.631579H12V14.0211L10.2316 15.7895ZM0.631579 15.1579H9.47368V13.2632H11.3684V1.26316H8.8421V2.21053H3.15789V1.26316H0.631579V15.1579ZM10.1053 13.8947V15.0316L11.2421 13.8947H10.1053ZM3.78947 1.57895H8.21053V0.631579H3.78947V1.57895ZM8.52632 12.3158H5.36842V11.6842H8.52632V12.3158ZM2.87368 12.1579L1.67368 10.9579L2.11579 10.5158L2.81053 11.2105L3.85263 9.91579L4.35789 10.3263L2.87368 12.1579ZM9.78947 10.7368H5.36842V10.1053H9.78947V10.7368ZM9.78947 9.15789H5.36842V8.52632H9.78947V9.15789ZM2.87368 9L1.67368 7.8L2.11579 7.35789L2.81053 8.05263L3.85263 6.75789L4.35789 7.16842L2.87368 9ZM9.78947 7.57895H5.36842V6.94737H9.78947V7.57895ZM9.78947 6H5.36842V5.36842H9.78947V6ZM2.87368 5.8421L1.67368 4.64211L2.11579 4.2L2.81053 4.89474L3.85263 3.6L4.35789 4.01053L2.87368 5.8421ZM9.78947 4.42105H5.36842V3.78947H9.78947V4.42105Z" fill="#2B3C4E"/>
</svg>
