<svg width="645" height="638" viewBox="0 0 645 638" fill="none" xmlns="http://www.w3.org/2000/svg">
<path d="M562.892 229.182L615.112 138.735L706.283 191.372L654.064 281.82L562.892 229.182ZM615.741 141.075L565.233 228.557L653.435 279.48L703.943 191.998L615.741 141.075Z" fill="url(#paint0_radial_2_1)" fill-opacity="0.03"/>
<path d="M205.494 23.3333L257.714 -67.1143L348.885 -14.4767L296.665 75.9709L205.494 23.3333ZM258.343 -64.7743L207.835 22.7078L296.037 73.6309L346.545 -13.8512L258.343 -64.7743Z" fill="url(#paint1_radial_2_1)" fill-opacity="0.03"/>
<path d="M524.941 88.6565L577.118 -1.71692L668.289 50.9207L616.112 141.294L524.941 88.6565ZM577.747 0.623122L527.282 88.0311L615.483 138.954L665.948 51.5462L577.747 0.623122Z" fill="url(#paint2_radial_2_1)" fill-opacity="0.03"/>
<path d="M384.484 126.178L436.704 35.7306L527.875 88.3683L475.655 178.816L384.484 126.178ZM437.333 38.0707L386.825 125.553L475.027 176.476L525.534 88.9937L437.333 38.0707Z" fill="url(#paint3_radial_2_1)" fill-opacity="0.03"/>
<path d="M435.995 37.3037L488.172 -53.0697L579.344 -0.432068L527.166 89.9414L435.995 37.3037ZM488.801 -50.7297L438.336 36.6783L526.538 87.6013L577.003 0.193388L488.801 -50.7297Z" fill="url(#paint4_radial_2_1)" fill-opacity="0.03"/>
<path d="M576.409 -0.153116L628.629 -90.6007L719.206 -38.306L666.986 52.1416L576.409 -0.153116ZM629.258 -88.2606L578.75 -0.778573L666.357 49.8016L716.865 -37.6805L629.258 -88.2606Z" fill="url(#paint5_radial_2_1)" fill-opacity="0.03"/>
<path d="M666.132 51.0509L666.56 50.3095L757.063 102.561L704.843 193.009L704.101 192.58C654.58 163.99 637.582 100.5 666.132 51.0509ZM754.722 103.187L667.189 52.6495C639.824 100.905 656.361 162.448 704.214 190.669L754.722 103.187Z" fill="url(#paint6_radial_2_1)" fill-opacity="0.03"/>
<path d="M487.054 -51.6458L539.274 -142.093L630.445 -89.4557L578.225 0.991853L487.054 -51.6458ZM539.903 -139.753L489.395 -52.2712L577.596 -1.34818L628.104 -88.8302L539.903 -139.753Z" fill="url(#paint7_radial_2_1)" fill-opacity="0.03"/>
<path d="M487.795 -51.2178L488.223 -51.9592C516.773 -101.409 580.255 -118.433 629.775 -89.8422L630.518 -89.4135L578.298 1.03403L487.795 -51.2178ZM628.177 -88.7881C579.81 -116.119 518.244 -99.6699 490.136 -51.8433L577.669 -1.30601L628.177 -88.7881Z" fill="url(#paint8_radial_2_1)" fill-opacity="0.03"/>
<path d="M437.316 37.0723L437.744 36.3309L528.247 88.5828L476.027 179.03L475.285 178.602C425.838 150.054 408.766 86.5219 437.316 37.0723ZM525.906 89.2082L438.373 38.671C411.008 86.9263 427.545 148.469 475.398 176.69L525.906 89.2082Z" fill="url(#paint9_radial_2_1)" fill-opacity="0.03"/>
<path d="M346.544 -13.8551L398.764 -104.303L489.935 -51.665L437.715 38.7826L346.544 -13.8551ZM399.393 -101.963L348.885 -14.4805L437.087 36.4425L487.594 -51.0395L399.393 -101.963Z" fill="url(#paint10_radial_2_1)" fill-opacity="0.03"/>
<path d="M295.328 75.1989L347.548 -15.2487L438.719 37.389L386.5 127.837L295.328 75.1989ZM348.177 -12.9086L297.669 74.5735L385.871 125.497L436.379 38.0144L348.177 -12.9086Z" fill="url(#paint11_radial_2_1)" fill-opacity="0.03"/>
<path d="M488.096 -51.7386L488.524 -52.48L579.026 -0.228149L526.807 90.2194L526.064 89.7907C476.544 61.2001 459.546 -2.28903 488.096 -51.7386ZM576.685 0.397307L489.152 -50.14C461.787 -1.88465 478.325 59.6583 526.178 87.8794L576.685 0.397307Z" fill="url(#paint12_radial_2_1)" fill-opacity="0.03"/>
<path d="M346.619 -13.812L398.839 -104.26L489.342 -52.0077L488.914 -51.2663C460.364 -1.81672 396.882 15.2073 347.361 -13.3834L346.619 -13.812ZM399.468 -101.92L349.003 -14.5116C397.327 12.8939 458.893 -3.55556 487.001 -51.3822L399.468 -101.92Z" fill="url(#paint13_radial_2_1)" fill-opacity="0.03"/>
<path d="M294.852 74.8251L347.029 -15.5484L437.532 36.7035L437.104 37.4449C408.554 86.8945 345.115 103.844 295.595 75.2537L294.852 74.8251ZM347.658 -13.2083L297.193 74.1996C345.517 101.605 407.083 85.1556 435.191 37.3289L347.658 -13.2083Z" fill="url(#paint14_radial_2_1)" fill-opacity="0.03"/>
<path d="M563.265 229.397L563.693 228.656C592.242 179.206 655.799 162.225 705.319 190.815L706.062 191.244L653.842 281.692L563.265 229.397ZM703.721 191.87C655.354 164.538 593.787 180.988 565.605 228.771L653.213 279.352L703.721 191.87Z" fill="url(#paint15_radial_2_1)" fill-opacity="0.03"/>
<path d="M576.634 -0.0256198L628.811 -90.399L629.553 -89.9704C679.074 -61.3797 696.114 2.03527 667.565 51.4849L667.137 52.2262L576.634 -0.0256198ZM629.44 -88.059L578.975 -0.651074L666.508 49.8862C693.873 1.63089 677.336 -59.9121 629.44 -88.059Z" fill="url(#paint16_radial_2_1)" fill-opacity="0.03"/>
<path d="M258.696 -65.5591L259.124 -66.3005L349.701 -14.0057L297.481 76.4419L296.739 76.0132C247.218 47.4226 230.146 -16.1095 258.696 -65.5591ZM347.36 -13.3803L259.753 -63.9604C232.462 -15.6622 248.999 45.8808 296.852 74.1018L347.36 -13.3803Z" fill="url(#paint17_radial_2_1)" fill-opacity="0.03"/>
<path d="M474.393 178.087L526.613 87.6394L527.355 88.0681C576.802 116.616 593.874 180.148 565.324 229.597L564.896 230.339L474.393 178.087ZM527.242 89.9795L476.734 177.462L564.267 227.999C591.558 179.701 575.021 118.158 527.242 89.9795Z" fill="url(#paint18_radial_2_1)" fill-opacity="0.03"/>
<path d="M577.148 -0.915814L577.576 -1.65719L668.079 50.5947L667.651 51.336C639.101 100.786 575.619 117.81 526.098 89.219L525.356 88.7904L577.148 -0.915814ZM578.205 0.682852L527.697 88.1649C576.064 115.496 637.63 99.0468 665.738 51.2201L578.205 0.682852Z" fill="url(#paint19_radial_2_1)" fill-opacity="0.03"/>
<path d="M409.28 496.451L461.5 406.003L552.077 458.298L499.857 548.745L409.28 496.451ZM462.129 408.343L411.621 495.825L499.228 546.405L549.736 458.923L462.129 408.343Z" fill="url(#paint20_radial_2_1)" fill-opacity="0.03"/>
<path d="M0.323736 378.867L52.5437 288.419L143.715 341.057L91.4948 431.504L0.323736 378.867ZM53.1725 290.759L2.66467 378.241L90.866 429.164L141.374 341.682L53.1725 290.759Z" fill="url(#paint21_radial_2_1)" fill-opacity="0.03"/>
<path d="M268.877 533.711L321.097 443.264L411.674 495.558L359.454 586.006L268.877 533.711ZM321.726 445.604L271.218 533.086L358.825 583.666L409.333 496.184L321.726 445.604Z" fill="url(#paint22_radial_2_1)" fill-opacity="0.03"/>
<path d="M179.488 482.103L231.708 391.655L322.805 444.25L270.585 534.697L179.488 482.103ZM232.337 393.995L181.829 481.477L269.956 532.357L320.464 444.875L232.337 393.995Z" fill="url(#paint23_radial_2_1)" fill-opacity="0.03"/>
<path d="M230.775 393.101L282.995 302.653L374.166 355.291L321.946 445.738L230.775 393.101ZM283.624 304.993L233.116 392.475L321.317 443.398L371.825 355.916L283.624 304.993Z" fill="url(#paint24_radial_2_1)" fill-opacity="0.03"/>
<path d="M511.657 317.924L563.877 227.477L655.048 280.114L602.828 370.562L511.657 317.924ZM564.506 229.817L513.998 317.299L602.199 368.222L652.707 280.74L564.506 229.817Z" fill="url(#paint25_radial_2_1)" fill-opacity="0.03"/>
<path d="M371.466 355.509L423.643 265.136L514.814 317.773L462.637 408.147L371.466 355.509ZM424.272 267.476L373.764 354.958L461.965 405.881L512.473 318.399L424.272 267.476Z" fill="url(#paint26_radial_2_1)" fill-opacity="0.03"/>
<path d="M563.818 228.431L564.246 227.69L654.749 279.942L602.529 370.389L601.787 369.96C552.341 341.413 535.269 277.881 563.818 228.431ZM652.408 280.567L564.875 230.03C537.51 278.285 554.047 339.828 601.9 368.049L652.408 280.567Z" fill="url(#paint27_radial_2_1)" fill-opacity="0.03"/>
<path d="M460.889 406.542L461.317 405.801L551.82 458.053L499.6 548.5L498.858 548.072C449.337 519.481 432.339 455.992 460.889 406.542ZM549.479 458.678L461.946 408.141C434.581 456.396 451.118 517.939 498.971 546.16L549.479 458.678Z" fill="url(#paint28_radial_2_1)" fill-opacity="0.03"/>
<path d="M155.511 112.303L207.731 21.8555L298.902 74.4932L246.682 164.941L155.511 112.303ZM208.36 24.1956L157.852 111.678L246.054 162.601L296.561 75.1186L208.36 24.1956Z" fill="url(#paint29_radial_2_1)" fill-opacity="0.03"/>
<path d="M334.344 214.567L334.772 213.826L425.275 266.078L373.055 356.525L372.312 356.097C322.792 327.506 305.794 264.017 334.344 214.567ZM422.934 266.703L335.401 216.166C308.035 264.421 324.573 325.964 372.426 354.185L422.934 266.703Z" fill="url(#paint30_radial_2_1)" fill-opacity="0.03"/>
<path d="M206.413 22.0827L206.841 21.3413L297.343 73.5931L245.166 163.967L244.424 163.538C194.903 134.947 177.863 71.5323 206.413 22.0827ZM295.002 74.2186L207.469 23.6813C180.104 71.9367 196.642 133.48 244.537 161.627L295.002 74.2186Z" fill="url(#paint31_radial_2_1)" fill-opacity="0.03"/>
<path d="M231.352 392.438L231.78 391.697L322.357 443.991L270.137 534.439L269.395 534.01C219.874 505.42 202.802 441.887 231.352 392.438ZM320.016 444.617L232.409 394.037C205.118 442.335 221.655 503.878 269.508 532.099L320.016 444.617Z" fill="url(#paint32_radial_2_1)" fill-opacity="0.03"/>
<path d="M333.621 215.135L385.841 124.687L477.012 177.325L424.792 267.772L333.621 215.135ZM386.469 127.027L335.962 214.509L424.163 265.432L474.671 177.95L386.469 127.027Z" fill="url(#paint33_radial_2_1)" fill-opacity="0.03"/>
<path d="M141.374 341.678L193.594 251.231L284.765 303.869L232.545 394.316L141.374 341.678ZM194.223 253.571L143.715 341.053L231.916 391.976L282.424 304.494L194.223 253.571Z" fill="url(#paint34_radial_2_1)" fill-opacity="0.03"/>
<path d="M90.0853 430.69L142.305 340.243L233.476 392.88L181.256 483.328L90.0853 430.69ZM142.934 342.583L92.4262 430.065L180.628 480.988L231.135 393.506L142.934 342.583Z" fill="url(#paint35_radial_2_1)" fill-opacity="0.03"/>
<path d="M244.305 163.568L296.525 73.1206L387.622 125.715L335.402 216.163L244.305 163.568ZM297.154 75.4606L246.646 162.943L334.773 213.823L385.281 126.341L297.154 75.4606Z" fill="url(#paint36_radial_2_1)" fill-opacity="0.03"/>
<path d="M193.015 252.579L245.235 162.132L336.406 214.769L284.186 305.217L193.015 252.579ZM245.864 164.472L195.356 251.954L283.557 302.877L334.065 215.395L245.864 164.472Z" fill="url(#paint37_radial_2_1)" fill-opacity="0.03"/>
<path d="M104.293 201.356L156.513 110.908L247.609 163.503L195.389 253.95L104.293 201.356ZM157.141 113.248L106.634 200.73L194.761 251.61L245.268 164.128L157.141 113.248Z" fill="url(#paint38_radial_2_1)" fill-opacity="0.03"/>
<path d="M52.2078 290.198L104.428 199.751L195.525 252.346L143.305 342.793L52.2078 290.198ZM105.057 202.091L54.5488 289.573L142.676 340.453L193.184 252.971L105.057 202.091Z" fill="url(#paint39_radial_2_1)" fill-opacity="0.03"/>
<path d="M231.121 393.696L231.549 392.955C260.098 343.505 323.612 326.598 373.133 355.189L373.875 355.617L321.698 445.991L231.121 393.696ZM371.534 356.243C323.21 328.837 261.644 345.287 233.462 393.071L321.069 443.651L371.534 356.243Z" fill="url(#paint40_radial_2_1)" fill-opacity="0.03"/>
<path d="M333.92 215.307L334.348 214.566C362.897 165.116 426.454 148.135 475.974 176.726L476.717 177.154L424.497 267.602L333.92 215.307ZM474.376 177.78C426.009 150.448 364.443 166.898 336.261 214.682L423.868 265.262L474.376 177.78Z" fill="url(#paint41_radial_2_1)" fill-opacity="0.03"/>
<path d="M192.983 252.462L245.16 162.088L245.902 162.517C295.348 191.065 312.463 254.523 283.914 303.972L283.485 304.714L192.983 252.462ZM245.789 164.428L195.324 251.836L282.857 302.374C310.222 254.118 293.684 192.575 245.789 164.428Z" fill="url(#paint42_radial_2_1)" fill-opacity="0.03"/>
<path d="M141.491 341.647L193.668 251.274L194.411 251.703C243.857 280.25 260.929 343.782 232.422 393.158L231.994 393.899L141.491 341.647ZM194.297 253.614L143.832 341.022L231.365 391.559C258.688 343.378 242.15 281.835 194.297 253.614Z" fill="url(#paint43_radial_2_1)" fill-opacity="0.03"/>
<path d="M104.201 201.002L104.629 200.26C133.179 150.811 196.661 133.787 246.182 162.377L246.924 162.806L194.704 253.253L104.201 201.002ZM244.583 163.431C196.217 136.1 134.65 152.549 106.542 200.376L194.075 250.913L244.583 163.431Z" fill="url(#paint44_radial_2_1)" fill-opacity="0.03"/>
<path d="M52.7101 290.187L53.1382 289.446C81.6879 239.996 145.17 222.972 194.69 251.563L195.433 251.991L143.213 342.439L52.7101 290.187ZM193.092 252.617C144.725 225.285 83.1588 241.735 55.0511 289.561L142.584 340.099L193.092 252.617Z" fill="url(#paint45_radial_2_1)" fill-opacity="0.03"/>
<path d="M89.6815 430.358L141.859 339.985L232.361 392.237L231.933 392.978C203.384 442.428 139.87 459.335 90.4239 430.787L89.6815 430.358ZM142.487 342.325L92.0224 429.733C140.346 457.139 201.913 440.689 230.021 392.862L142.487 342.325Z" fill="url(#paint46_radial_2_1)" fill-opacity="0.03"/>
<path d="M460.631 406.989L461.016 406.322C489.566 356.872 553.048 339.848 602.569 368.439L603.311 368.867L551.134 459.241L460.631 406.989ZM600.97 369.493C552.604 342.161 491.037 358.611 462.929 406.438L550.462 456.975L600.97 369.493Z" fill="url(#paint47_radial_2_1)" fill-opacity="0.03"/>
<path d="M358.095 584.931L358.523 584.19C387.073 534.74 450.555 517.716 500.076 546.307L500.818 546.736L448.598 637.183L358.095 584.931ZM498.477 547.361C450.111 520.03 388.544 536.479 360.436 584.306L447.969 634.843L498.477 547.361Z" fill="url(#paint48_radial_2_1)" fill-opacity="0.03"/>
<path d="M371.761 355.679L423.938 265.306L424.681 265.735C474.201 294.325 491.316 357.783 462.766 407.233L462.338 407.974L371.761 355.679ZM424.567 267.646L374.102 355.054L461.709 405.634C489 357.336 472.463 295.793 424.567 267.646Z" fill="url(#paint49_radial_2_1)" fill-opacity="0.03"/>
<path d="M1.77799 379.607L53.9551 289.234L54.6975 289.663C104.218 318.253 121.216 381.742 92.7089 431.118L92.2809 431.859L1.77799 379.607ZM54.5839 291.574L4.11892 378.982L91.652 429.519C118.975 381.338 102.437 319.795 54.5839 291.574Z" fill="url(#paint50_radial_2_1)" fill-opacity="0.03"/>
<path d="M422.712 266.572L474.932 176.124L565.509 228.419L565.081 229.16C536.531 278.61 472.975 295.591 423.454 267L422.712 266.572ZM475.561 178.464L425.053 265.946C473.42 293.277 534.986 276.828 563.094 229.001L475.561 178.464Z" fill="url(#paint51_radial_2_1)" fill-opacity="0.03"/>
<path d="M268.879 533.712L321.099 443.265L321.841 443.694C371.362 472.284 388.359 535.773 359.81 585.223L359.382 585.964L268.879 533.712ZM321.728 445.605L271.22 533.087L358.753 583.624C386.118 535.369 369.581 473.826 321.728 445.605Z" fill="url(#paint52_radial_2_1)" fill-opacity="0.03"/>
<path d="M320.18 444.512L372.357 354.138L462.86 406.39L462.431 407.132C433.925 456.507 370.442 473.531 320.922 444.94L320.18 444.512ZM372.985 356.478L322.52 443.886C370.844 471.292 432.411 454.842 460.519 407.016L372.985 356.478Z" fill="url(#paint53_radial_2_1)" fill-opacity="0.03"/>
<path d="M243.861 163.312L296.081 72.8643L296.823 73.2929C346.27 101.841 363.342 165.373 334.792 214.822L334.364 215.564L243.861 163.312ZM296.71 75.2043L246.202 162.686L333.735 213.224C361.1 164.968 344.563 103.425 296.71 75.2043Z" fill="url(#paint54_radial_2_1)" fill-opacity="0.03"/>
<defs>
<radialGradient id="paint0_radial_2_1" cx="0" cy="0" r="1" gradientUnits="userSpaceOnUse" gradientTransform="translate(634.588 210.277) rotate(-150) scale(52.6376 52.2199)">
<stop stop-color="#481787"/>
<stop offset="1" stop-color="#481787" stop-opacity="0.72"/>
</radialGradient>
<radialGradient id="paint1_radial_2_1" cx="0" cy="0" r="1" gradientUnits="userSpaceOnUse" gradientTransform="translate(277.19 4.4283) rotate(-150) scale(52.6376 52.2199)">
<stop stop-color="#481787"/>
<stop offset="1" stop-color="#481787" stop-opacity="0.72"/>
</radialGradient>
<radialGradient id="paint2_radial_2_1" cx="0" cy="0" r="1" gradientUnits="userSpaceOnUse" gradientTransform="translate(596.615 69.7886) rotate(-150) scale(52.6376 52.1771)">
<stop stop-color="#481787"/>
<stop offset="1" stop-color="#481787" stop-opacity="0.72"/>
</radialGradient>
<radialGradient id="paint3_radial_2_1" cx="0" cy="0" r="1" gradientUnits="userSpaceOnUse" gradientTransform="translate(456.18 107.273) rotate(-150) scale(52.6376 52.2199)">
<stop stop-color="#481787"/>
<stop offset="1" stop-color="#481787" stop-opacity="0.72"/>
</radialGradient>
<radialGradient id="paint4_radial_2_1" cx="0" cy="0" r="1" gradientUnits="userSpaceOnUse" gradientTransform="translate(507.669 18.4358) rotate(-150) scale(52.6377 52.1771)">
<stop stop-color="#481787"/>
<stop offset="1" stop-color="#481787" stop-opacity="0.72"/>
</radialGradient>
<radialGradient id="paint5_radial_2_1" cx="0" cy="0" r="1" gradientUnits="userSpaceOnUse" gradientTransform="translate(647.808 -19.2295) rotate(-150) scale(52.2947 52.2199)">
<stop stop-color="#481787"/>
<stop offset="1" stop-color="#481787" stop-opacity="0.72"/>
</radialGradient>
<radialGradient id="paint6_radial_2_1" cx="0" cy="0" r="1" gradientUnits="userSpaceOnUse" gradientTransform="translate(685.702 121.659) rotate(-150) scale(52.2518 52.2199)">
<stop stop-color="#481787"/>
<stop offset="1" stop-color="#481787" stop-opacity="0.72"/>
</radialGradient>
<radialGradient id="paint7_radial_2_1" cx="0" cy="0" r="1" gradientUnits="userSpaceOnUse" gradientTransform="translate(558.749 -70.5507) rotate(-150) scale(52.6376 52.2199)">
<stop stop-color="#481787"/>
<stop offset="1" stop-color="#481787" stop-opacity="0.72"/>
</radialGradient>
<radialGradient id="paint8_radial_2_1" cx="0" cy="0" r="1" gradientUnits="userSpaceOnUse" gradientTransform="translate(559.156 -70.3157) rotate(-150) scale(52.2518 52.2199)">
<stop stop-color="#481787"/>
<stop offset="1" stop-color="#481787" stop-opacity="0.72"/>
</radialGradient>
<radialGradient id="paint9_radial_2_1" cx="0" cy="0" r="1" gradientUnits="userSpaceOnUse" gradientTransform="translate(456.886 107.681) rotate(-150) scale(52.2518 52.2199)">
<stop stop-color="#481787"/>
<stop offset="1" stop-color="#481787" stop-opacity="0.72"/>
</radialGradient>
<radialGradient id="paint10_radial_2_1" cx="0" cy="0" r="1" gradientUnits="userSpaceOnUse" gradientTransform="translate(418.24 -32.76) rotate(-150) scale(52.6376 52.2199)">
<stop stop-color="#481787"/>
<stop offset="1" stop-color="#481787" stop-opacity="0.72"/>
</radialGradient>
<radialGradient id="paint11_radial_2_1" cx="0" cy="0" r="1" gradientUnits="userSpaceOnUse" gradientTransform="translate(367.024 56.294) rotate(-150) scale(52.6376 52.2199)">
<stop stop-color="#481787"/>
<stop offset="1" stop-color="#481787" stop-opacity="0.72"/>
</radialGradient>
<radialGradient id="paint12_radial_2_1" cx="0" cy="0" r="1" gradientUnits="userSpaceOnUse" gradientTransform="translate(507.665 18.8697) rotate(-150) scale(52.2518 52.2199)">
<stop stop-color="#481787"/>
<stop offset="1" stop-color="#481787" stop-opacity="0.72"/>
</radialGradient>
<radialGradient id="paint13_radial_2_1" cx="0" cy="0" r="1" gradientUnits="userSpaceOnUse" gradientTransform="translate(417.98 -32.9098) rotate(-150) scale(52.2518 52.2199)">
<stop stop-color="#481787"/>
<stop offset="1" stop-color="#481787" stop-opacity="0.72"/>
</radialGradient>
<radialGradient id="paint14_radial_2_1" cx="0" cy="0" r="1" gradientUnits="userSpaceOnUse" gradientTransform="translate(366.192 55.7643) rotate(-150) scale(52.2519 52.1771)">
<stop stop-color="#481787"/>
<stop offset="1" stop-color="#481787" stop-opacity="0.72"/>
</radialGradient>
<radialGradient id="paint15_radial_2_1" cx="0" cy="0" r="1" gradientUnits="userSpaceOnUse" gradientTransform="translate(634.663 210.32) rotate(-150) scale(52.2947 52.2199)">
<stop stop-color="#481787"/>
<stop offset="1" stop-color="#481787" stop-opacity="0.72"/>
</radialGradient>
<radialGradient id="paint16_radial_2_1" cx="0" cy="0" r="1" gradientUnits="userSpaceOnUse" gradientTransform="translate(647.974 -19.0864) rotate(-150) scale(52.2518 52.1771)">
<stop stop-color="#481787"/>
<stop offset="1" stop-color="#481787" stop-opacity="0.72"/>
</radialGradient>
<radialGradient id="paint17_radial_2_1" cx="0" cy="0" r="1" gradientUnits="userSpaceOnUse" gradientTransform="translate(278.303 5.0707) rotate(-150) scale(52.2947 52.2199)">
<stop stop-color="#481787"/>
<stop offset="1" stop-color="#481787" stop-opacity="0.72"/>
</radialGradient>
<radialGradient id="paint18_radial_2_1" cx="0" cy="0" r="1" gradientUnits="userSpaceOnUse" gradientTransform="translate(545.755 158.989) rotate(-150) scale(52.2518 52.2199)">
<stop stop-color="#481787"/>
<stop offset="1" stop-color="#481787" stop-opacity="0.72"/>
</radialGradient>
<radialGradient id="paint19_radial_2_1" cx="0" cy="0" r="1" gradientUnits="userSpaceOnUse" gradientTransform="translate(596.717 69.6925) rotate(-150) scale(52.2518 52.2199)">
<stop stop-color="#481787"/>
<stop offset="1" stop-color="#481787" stop-opacity="0.72"/>
</radialGradient>
<radialGradient id="paint20_radial_2_1" cx="0" cy="0" r="1" gradientUnits="userSpaceOnUse" gradientTransform="translate(480.678 477.374) rotate(-150) scale(52.2947 52.2199)">
<stop stop-color="#481787"/>
<stop offset="1" stop-color="#481787" stop-opacity="0.72"/>
</radialGradient>
<radialGradient id="paint21_radial_2_1" cx="0" cy="0" r="1" gradientUnits="userSpaceOnUse" gradientTransform="translate(72.0192 359.962) rotate(-150) scale(52.6376 52.2199)">
<stop stop-color="#481787"/>
<stop offset="1" stop-color="#481787" stop-opacity="0.72"/>
</radialGradient>
<radialGradient id="paint22_radial_2_1" cx="0" cy="0" r="1" gradientUnits="userSpaceOnUse" gradientTransform="translate(340.276 514.635) rotate(-150) scale(52.2947 52.2199)">
<stop stop-color="#481787"/>
<stop offset="1" stop-color="#481787" stop-opacity="0.72"/>
</radialGradient>
<radialGradient id="paint23_radial_2_1" cx="0" cy="0" r="1" gradientUnits="userSpaceOnUse" gradientTransform="translate(251.147 463.176) rotate(-150) scale(52.5948 52.2199)">
<stop stop-color="#481787"/>
<stop offset="1" stop-color="#481787" stop-opacity="0.72"/>
</radialGradient>
<radialGradient id="paint24_radial_2_1" cx="0" cy="0" r="1" gradientUnits="userSpaceOnUse" gradientTransform="translate(302.47 374.196) rotate(-150) scale(52.6376 52.2199)">
<stop stop-color="#481787"/>
<stop offset="1" stop-color="#481787" stop-opacity="0.72"/>
</radialGradient>
<radialGradient id="paint25_radial_2_1" cx="0" cy="0" r="1" gradientUnits="userSpaceOnUse" gradientTransform="translate(583.353 299.019) rotate(-150) scale(52.6376 52.2199)">
<stop stop-color="#481787"/>
<stop offset="1" stop-color="#481787" stop-opacity="0.72"/>
</radialGradient>
<radialGradient id="paint26_radial_2_1" cx="0" cy="0" r="1" gradientUnits="userSpaceOnUse" gradientTransform="translate(443.14 336.641) rotate(-150) scale(52.6376 52.1771)">
<stop stop-color="#481787"/>
<stop offset="1" stop-color="#481787" stop-opacity="0.72"/>
</radialGradient>
<radialGradient id="paint27_radial_2_1" cx="0" cy="0" r="1" gradientUnits="userSpaceOnUse" gradientTransform="translate(583.388 299.039) rotate(-150) scale(52.2518 52.2199)">
<stop stop-color="#481787"/>
<stop offset="1" stop-color="#481787" stop-opacity="0.72"/>
</radialGradient>
<radialGradient id="paint28_radial_2_1" cx="0" cy="0" r="1" gradientUnits="userSpaceOnUse" gradientTransform="translate(480.459 477.151) rotate(-150) scale(52.2518 52.2199)">
<stop stop-color="#481787"/>
<stop offset="1" stop-color="#481787" stop-opacity="0.72"/>
</radialGradient>
<radialGradient id="paint29_radial_2_1" cx="0" cy="0" r="1" gradientUnits="userSpaceOnUse" gradientTransform="translate(227.207 93.3982) rotate(-150) scale(52.6376 52.2199)">
<stop stop-color="#481787"/>
<stop offset="1" stop-color="#481787" stop-opacity="0.72"/>
</radialGradient>
<radialGradient id="paint30_radial_2_1" cx="0" cy="0" r="1" gradientUnits="userSpaceOnUse" gradientTransform="translate(353.913 285.176) rotate(-150) scale(52.2518 52.2199)">
<stop stop-color="#481787"/>
<stop offset="1" stop-color="#481787" stop-opacity="0.72"/>
</radialGradient>
<radialGradient id="paint31_radial_2_1" cx="0" cy="0" r="1" gradientUnits="userSpaceOnUse" gradientTransform="translate(226.003 92.6539) rotate(-150) scale(52.2518 52.1771)">
<stop stop-color="#481787"/>
<stop offset="1" stop-color="#481787" stop-opacity="0.72"/>
</radialGradient>
<radialGradient id="paint32_radial_2_1" cx="0" cy="0" r="1" gradientUnits="userSpaceOnUse" gradientTransform="translate(250.958 463.068) rotate(-150) scale(52.2947 52.2199)">
<stop stop-color="#481787"/>
<stop offset="1" stop-color="#481787" stop-opacity="0.72"/>
</radialGradient>
<radialGradient id="paint33_radial_2_1" cx="0" cy="0" r="1" gradientUnits="userSpaceOnUse" gradientTransform="translate(405.316 196.23) rotate(-150) scale(52.6376 52.2199)">
<stop stop-color="#481787"/>
<stop offset="1" stop-color="#481787" stop-opacity="0.72"/>
</radialGradient>
<radialGradient id="paint34_radial_2_1" cx="0" cy="0" r="1" gradientUnits="userSpaceOnUse" gradientTransform="translate(213.069 322.773) rotate(-150) scale(52.6376 52.2199)">
<stop stop-color="#481787"/>
<stop offset="1" stop-color="#481787" stop-opacity="0.72"/>
</radialGradient>
<radialGradient id="paint35_radial_2_1" cx="0" cy="0" r="1" gradientUnits="userSpaceOnUse" gradientTransform="translate(161.781 411.785) rotate(-150) scale(52.6376 52.2199)">
<stop stop-color="#481787"/>
<stop offset="1" stop-color="#481787" stop-opacity="0.72"/>
</radialGradient>
<radialGradient id="paint36_radial_2_1" cx="0" cy="0" r="1" gradientUnits="userSpaceOnUse" gradientTransform="translate(315.963 144.642) rotate(-150) scale(52.5948 52.2199)">
<stop stop-color="#481787"/>
<stop offset="1" stop-color="#481787" stop-opacity="0.72"/>
</radialGradient>
<radialGradient id="paint37_radial_2_1" cx="0" cy="0" r="1" gradientUnits="userSpaceOnUse" gradientTransform="translate(264.71 233.674) rotate(-150) scale(52.6376 52.2199)">
<stop stop-color="#481787"/>
<stop offset="1" stop-color="#481787" stop-opacity="0.72"/>
</radialGradient>
<radialGradient id="paint38_radial_2_1" cx="0" cy="0" r="1" gradientUnits="userSpaceOnUse" gradientTransform="translate(175.951 182.429) rotate(-150) scale(52.5947 52.2199)">
<stop stop-color="#481787"/>
<stop offset="1" stop-color="#481787" stop-opacity="0.72"/>
</radialGradient>
<radialGradient id="paint39_radial_2_1" cx="0" cy="0" r="1" gradientUnits="userSpaceOnUse" gradientTransform="translate(123.866 271.272) rotate(-150) scale(52.5948 52.2199)">
<stop stop-color="#481787"/>
<stop offset="1" stop-color="#481787" stop-opacity="0.72"/>
</radialGradient>
<radialGradient id="paint40_radial_2_1" cx="0" cy="0" r="1" gradientUnits="userSpaceOnUse" gradientTransform="translate(302.498 374.657) rotate(-150) scale(52.2947 52.1771)">
<stop stop-color="#481787"/>
<stop offset="1" stop-color="#481787" stop-opacity="0.72"/>
</radialGradient>
<radialGradient id="paint41_radial_2_1" cx="0" cy="0" r="1" gradientUnits="userSpaceOnUse" gradientTransform="translate(405.318 196.231) rotate(-150) scale(52.2947 52.2199)">
<stop stop-color="#481787"/>
<stop offset="1" stop-color="#481787" stop-opacity="0.72"/>
</radialGradient>
<radialGradient id="paint42_radial_2_1" cx="0" cy="0" r="1" gradientUnits="userSpaceOnUse" gradientTransform="translate(264.323 233.401) rotate(-150) scale(52.2518 52.1771)">
<stop stop-color="#481787"/>
<stop offset="1" stop-color="#481787" stop-opacity="0.72"/>
</radialGradient>
<radialGradient id="paint43_radial_2_1" cx="0" cy="0" r="1" gradientUnits="userSpaceOnUse" gradientTransform="translate(212.831 322.587) rotate(-150) scale(52.2518 52.1771)">
<stop stop-color="#481787"/>
<stop offset="1" stop-color="#481787" stop-opacity="0.72"/>
</radialGradient>
<radialGradient id="paint44_radial_2_1" cx="0" cy="0" r="1" gradientUnits="userSpaceOnUse" gradientTransform="translate(175.563 181.904) rotate(-150) scale(52.2518 52.2199)">
<stop stop-color="#481787"/>
<stop offset="1" stop-color="#481787" stop-opacity="0.72"/>
</radialGradient>
<radialGradient id="paint45_radial_2_1" cx="0" cy="0" r="1" gradientUnits="userSpaceOnUse" gradientTransform="translate(124.072 271.089) rotate(-150) scale(52.2518 52.2199)">
<stop stop-color="#481787"/>
<stop offset="1" stop-color="#481787" stop-opacity="0.72"/>
</radialGradient>
<radialGradient id="paint46_radial_2_1" cx="0" cy="0" r="1" gradientUnits="userSpaceOnUse" gradientTransform="translate(161.021 411.298) rotate(-150) scale(52.2518 52.1771)">
<stop stop-color="#481787"/>
<stop offset="1" stop-color="#481787" stop-opacity="0.72"/>
</radialGradient>
<radialGradient id="paint47_radial_2_1" cx="0" cy="0" r="1" gradientUnits="userSpaceOnUse" gradientTransform="translate(531.971 387.928) rotate(-150) scale(52.2518 52.1771)">
<stop stop-color="#481787"/>
<stop offset="1" stop-color="#481787" stop-opacity="0.72"/>
</radialGradient>
<radialGradient id="paint48_radial_2_1" cx="0" cy="0" r="1" gradientUnits="userSpaceOnUse" gradientTransform="translate(429.457 565.834) rotate(-150) scale(52.2519 52.2199)">
<stop stop-color="#481787"/>
<stop offset="1" stop-color="#481787" stop-opacity="0.72"/>
</radialGradient>
<radialGradient id="paint49_radial_2_1" cx="0" cy="0" r="1" gradientUnits="userSpaceOnUse" gradientTransform="translate(443.138 336.64) rotate(-150) scale(52.2947 52.1771)">
<stop stop-color="#481787"/>
<stop offset="1" stop-color="#481787" stop-opacity="0.72"/>
</radialGradient>
<radialGradient id="paint50_radial_2_1" cx="0" cy="0" r="1" gradientUnits="userSpaceOnUse" gradientTransform="translate(73.118 360.547) rotate(-150) scale(52.2519 52.1771)">
<stop stop-color="#481787"/>
<stop offset="1" stop-color="#481787" stop-opacity="0.72"/>
</radialGradient>
<radialGradient id="paint51_radial_2_1" cx="0" cy="0" r="1" gradientUnits="userSpaceOnUse" gradientTransform="translate(494.111 247.495) rotate(-150) scale(52.2947 52.2199)">
<stop stop-color="#481787"/>
<stop offset="1" stop-color="#481787" stop-opacity="0.72"/>
</radialGradient>
<radialGradient id="paint52_radial_2_1" cx="0" cy="0" r="1" gradientUnits="userSpaceOnUse" gradientTransform="translate(340.24 514.615) rotate(-150) scale(52.2518 52.2199)">
<stop stop-color="#481787"/>
<stop offset="1" stop-color="#481787" stop-opacity="0.72"/>
</radialGradient>
<radialGradient id="paint53_radial_2_1" cx="0" cy="0" r="1" gradientUnits="userSpaceOnUse" gradientTransform="translate(391.52 425.451) rotate(-150) scale(52.2518 52.1771)">
<stop stop-color="#481787"/>
<stop offset="1" stop-color="#481787" stop-opacity="0.72"/>
</radialGradient>
<radialGradient id="paint54_radial_2_1" cx="0" cy="0" r="1" gradientUnits="userSpaceOnUse" gradientTransform="translate(315.222 144.214) rotate(-150) scale(52.2518 52.2199)">
<stop stop-color="#481787"/>
<stop offset="1" stop-color="#481787" stop-opacity="0.72"/>
</radialGradient>
</defs>
</svg>
