<svg width="14" height="13" viewBox="0 0 14 13" fill="none" xmlns="http://www.w3.org/2000/svg">
<path d="M0.7 0.700195H13.3C13.4857 0.700195 13.6637 0.771214 13.795 0.897627C13.9263 1.02404 14 1.19549 14 1.37427V12.1595C14 12.3382 13.9263 12.5097 13.795 12.6361C13.6637 12.7625 13.4857 12.8335 13.3 12.8335H0.7C0.514348 12.8335 0.336301 12.7625 0.205025 12.6361C0.0737498 12.5097 0 12.3382 0 12.1595V1.37427C0 1.19549 0.0737498 1.02404 0.205025 0.897627C0.336301 0.771214 0.514348 0.700195 0.7 0.700195V0.700195ZM12.6 3.55692L7.0504 8.34285L1.4 3.54209V11.4854H12.6V3.55692ZM1.7577 2.04834L7.0427 6.53903L12.2514 2.04834H1.7577Z" fill="#2B3C4E"/>
</svg>
