<svg width="16" height="16" viewBox="0 0 16 16" fill="none" xmlns="http://www.w3.org/2000/svg">
<path d="M12.4384 9.79032C11.9176 9.67912 11.5056 9.91992 11.1408 10.1295C10.7672 10.3447 10.444 10.5319 10.0376 10.3839C7.95198 9.53352 6.46318 8.04392 5.61519 5.96714C5.46559 5.55434 5.65199 5.23034 5.86719 4.85514C6.07679 4.49194 6.31438 4.07835 6.20639 3.55835C6.10799 3.09035 4.60879 1.20476 4.1624 0.767963C3.868 0.480764 3.5664 0.322365 3.2576 0.295965C2.09361 0.247165 0.654414 1.92476 0.425615 2.29355C-0.145582 3.07995 -0.141582 4.12635 0.436015 5.39514C1.82721 8.80312 7.14718 14.1239 10.5936 15.5567C11.2296 15.8527 11.8112 15.9999 12.3336 15.9999C12.8456 15.9999 13.2999 15.8583 13.6911 15.5767C13.9863 15.4087 15.7423 13.9183 15.6999 12.7319C15.6743 12.4295 15.5159 12.1271 15.2287 11.8343C14.7919 11.3871 12.9064 9.88791 12.4384 9.79032Z" fill="#211F26"/>
<path d="M12.0478 6.23087C12.103 6.51327 12.3486 6.70767 12.6254 6.70767C12.663 6.70767 12.7006 6.70367 12.739 6.69647C13.0582 6.63407 13.2662 6.32447 13.2038 6.00607C12.8854 4.37248 11.6238 3.11168 9.99103 2.79329C9.67344 2.73809 9.36304 2.93889 9.29984 3.25888C9.23824 3.57808 9.44704 3.88768 9.76544 3.94928C10.9262 4.17568 11.8214 5.07087 12.0478 6.23087Z" fill="#211F26"/>
<path d="M9.94349 0.00456336C9.61949 -0.0362364 9.32829 0.201362 9.29309 0.524561C9.25709 0.848559 9.49069 1.13896 9.81309 1.17496C12.4643 1.46936 14.5243 3.52615 14.8219 6.17813C14.8563 6.47813 15.1107 6.70053 15.4067 6.70053C15.4283 6.70053 15.4507 6.69893 15.4731 6.69653C15.7963 6.66053 16.0291 6.36933 15.9923 6.04613C15.6323 2.84455 13.1451 0.359762 9.94349 0.00456336Z" fill="#211F26"/>
</svg>
