<svg width="148" height="148" viewBox="0 0 148 148" fill="none" xmlns="http://www.w3.org/2000/svg">
<path d="M75.0258 61.4825C55.9141 42.3733 34.9581 32.3452 28.2168 39.084C27.4771 39.8589 26.9328 40.7986 26.6289 41.8259L26.5204 41.7174L20.0825 68.1004L13.6716 94.4046L6.07231 125.551L1.26172 145.277L29.7431 134.499L65.9692 120.793L94.8698 109.857L94.8353 109.823C95.8027 109.514 96.6879 108.991 97.4243 108.291C104.165 101.55 94.1375 80.5942 75.0258 61.4825Z" fill="#DD1C4B"/>
<path d="M75.0253 61.4748C55.9143 42.3638 34.9576 32.3355 28.2173 39.0758C21.4769 45.8162 31.5053 66.7729 50.6163 85.8838C69.7272 104.995 90.6839 115.023 97.4242 108.283C104.165 101.542 94.1362 80.5858 75.0253 61.4748Z" fill="#D1E3EE"/>
<path d="M92.2463 110.71C88.7955 110.771 85.3719 110.091 82.2059 108.718L58.5845 117.656L22.346 131.351L2.91374 138.703L1.26172 145.477L29.7431 134.699L65.9692 120.992L92.4928 110.957L92.2463 110.71Z" fill="#B21D48"/>
<path d="M122.081 91.2311C121.786 91.2302 121.493 91.1775 121.216 91.0758C108.698 86.3863 95.1672 85.0715 81.9812 87.2638L73.1737 88.7309C71.8256 88.9232 70.5767 87.9863 70.3844 86.6381C70.1985 85.3356 71.068 84.1166 72.36 83.8685L81.17 82.3891C95.2103 80.0562 109.617 81.4552 122.946 86.4452C124.228 86.9057 124.893 88.3179 124.433 89.5994C124.077 90.5894 123.133 91.2447 122.081 91.2311Z" fill="#FFBF41"/>
<path d="M77.6983 76.437C76.3366 76.429 75.2391 75.3185 75.2471 73.9569C75.2527 73.0168 75.792 72.1618 76.6381 71.7522L128.418 47.0951C129.648 46.5095 131.119 47.0317 131.705 48.2614C132.29 49.4912 131.768 50.9626 130.538 51.5482L78.7586 76.2053C78.427 76.3603 78.0648 76.4395 77.6983 76.437Z" fill="#FFBF41"/>
<path d="M48.8645 71.5056C48.5393 71.5062 48.2172 71.4418 47.9176 71.3157C46.6607 70.7915 46.0668 69.3478 46.5911 68.0909V68.0906L50.1762 59.4877C55.6923 46.307 56.9785 31.7384 53.8575 17.7951C53.5376 16.4713 54.3516 15.1392 55.675 14.8193C56.9988 14.4994 58.3309 15.3134 58.6508 16.6369C58.6579 16.6661 58.6644 16.6954 58.6706 16.725C62.0141 31.6613 60.6354 47.2674 54.7254 61.3863L51.1378 69.9892C50.755 70.9067 49.8588 71.5047 48.8645 71.5056Z" fill="#FFBF41"/>
<path d="M134.41 101.094C137.133 101.094 139.341 98.8862 139.341 96.1626C139.341 93.4391 137.133 91.2312 134.41 91.2312C131.686 91.2312 129.479 93.4391 129.479 96.1626C129.479 98.8862 131.686 101.094 134.41 101.094Z" fill="#D5557E"/>
<path d="M75.2322 32.0542C77.9557 32.0542 80.1636 29.8464 80.1636 27.1228C80.1636 24.3993 77.9557 22.1914 75.2322 22.1914C72.5086 22.1914 70.3008 24.3993 70.3008 27.1228C70.3008 29.8464 72.5086 32.0542 75.2322 32.0542Z" fill="#DD95C1"/>
<path d="M53.0408 9.86282C50.3171 9.86282 48.1094 7.65509 48.1094 4.93141C48.1094 2.20773 50.3171 0 53.0408 0C55.7645 0 57.9722 2.20773 57.9722 4.93141C57.9722 7.65509 55.7645 9.86282 53.0408 9.86282Z" fill="#7FCCCB"/>
<path d="M122.082 19.7257C120.72 19.7257 119.616 18.6217 119.616 17.26V14.7943C119.616 13.4326 120.72 12.3286 122.082 12.3286C123.444 12.3286 124.548 13.4326 124.548 14.7943V17.26C124.548 18.6217 123.444 19.7257 122.082 19.7257Z" fill="#2276BB"/>
<path d="M122.082 7.39712C120.72 7.39712 119.616 6.2931 119.616 4.93141V2.46571C119.616 1.10402 120.72 0 122.082 0C123.444 0 124.548 1.10402 124.548 2.46571V4.93141C124.548 6.2931 123.444 7.39712 122.082 7.39712Z" fill="#2276BB"/>
<path d="M129.478 12.3286H127.013C125.651 12.3286 124.547 11.2246 124.547 9.86292C124.547 8.50124 125.651 7.39722 127.013 7.39722H129.478C130.84 7.39722 131.944 8.50124 131.944 9.86292C131.944 11.2246 130.84 12.3286 129.478 12.3286Z" fill="#2276BB"/>
<path d="M117.15 12.3286H114.684C113.323 12.3286 112.219 11.2246 112.219 9.86292C112.219 8.50124 113.323 7.39722 114.684 7.39722H117.15C118.512 7.39722 119.616 8.50124 119.616 9.86292C119.616 11.2246 118.512 12.3286 117.15 12.3286Z" fill="#2276BB"/>
<path d="M20.8348 71.5055C20.5586 70.4501 20.312 69.385 20.0827 68.3L13.6719 94.6042L14.165 100.618C15.2398 113.439 20.7475 125.486 29.7409 134.687L65.9695 120.992C65.7722 120.931 65.5676 120.886 65.3703 120.82C43.4024 112.583 26.7981 94.1964 20.8348 71.5055Z" fill="white"/>
<path d="M65.9689 120.992C65.7716 120.93 65.567 120.886 65.3697 120.82C62.9965 119.921 60.6719 118.898 58.4065 117.755L25.7754 130.1C27.0126 131.705 28.337 133.24 29.7427 134.699L65.9689 120.992Z" fill="#F6F6E7"/>
<path d="M104.821 29.5366V41.9169H92.4404V29.5366H104.821Z" fill="#C9DA53"/>
<path d="M60.4387 73.9711C59.077 73.9708 57.9733 72.8664 57.9736 71.5048C57.9739 70.8063 58.2701 70.1409 58.7892 69.6734L83.4462 47.482C84.476 46.591 86.0331 46.7035 86.9241 47.7332C87.7905 48.7343 87.7116 50.2408 86.7453 51.146L62.0883 73.3374C61.6358 73.7452 61.0481 73.9708 60.4387 73.9711Z" fill="#FFBF41"/>
<path d="M131.944 64.1085C130.583 64.1085 129.479 63.0045 129.479 61.6428V59.1771C129.479 57.8154 130.583 56.7114 131.944 56.7114C133.306 56.7114 134.41 57.8154 134.41 59.1771V61.6428C134.41 63.0045 133.306 64.1085 131.944 64.1085Z" fill="#FFDB43"/>
<path d="M140.663 60.4961C140.009 60.498 139.381 60.2378 138.92 59.7737L137.177 58.0304C136.231 57.0509 136.257 55.4898 137.237 54.5439C138.192 53.6211 139.707 53.6211 140.663 54.5439L142.406 56.2872C143.369 57.2503 143.369 58.8114 142.406 59.7743C141.944 60.2363 141.317 60.4961 140.663 60.4961Z" fill="#FFDB43"/>
<path d="M144.272 51.78H141.807C140.445 51.78 139.341 50.676 139.341 49.3143C139.341 47.9527 140.445 46.8486 141.807 46.8486H144.272C145.634 46.8486 146.738 47.9527 146.738 49.3143C146.738 50.676 145.634 51.78 144.272 51.78Z" fill="#FFDB43"/>
<path d="M138.919 44.8069C137.558 44.8066 136.454 43.7025 136.454 42.3406C136.454 41.6868 136.714 41.0599 137.176 40.5979L138.919 38.8547C139.899 37.9085 141.459 37.9356 142.406 38.9151C143.328 39.8705 143.328 41.3854 142.406 42.3412L140.662 44.0844C140.2 44.5467 139.573 44.8069 138.919 44.8069Z" fill="#FFDB43"/>
<path d="M131.944 41.9171C130.583 41.9171 129.479 40.8131 129.479 39.4514V36.9857C129.479 35.624 130.583 34.52 131.944 34.52C133.306 34.52 134.41 35.624 134.41 36.9857V39.4514C134.41 40.8131 133.306 41.9171 131.944 41.9171Z" fill="#FFDB43"/>
<path d="M124.969 44.8069C124.315 44.8069 123.688 44.5468 123.225 44.0845L121.482 42.3412C120.536 41.3617 120.563 39.8006 121.543 38.8547C122.498 37.9319 124.013 37.9319 124.969 38.8547L126.712 40.5979C127.675 41.5611 127.675 43.1222 126.711 44.0851C126.249 44.5471 125.622 44.8069 124.969 44.8069Z" fill="#FFDB43"/>
<path d="M13.5902 2.46582L17.3998 10.1859L25.9188 11.4237L19.7545 17.4327L21.2093 25.9171L13.5902 21.9104L5.97122 25.9171L7.42598 17.4327L1.26172 11.4237L9.78073 10.1859L13.5902 2.46582Z" fill="#FFDB43"/>
<path d="M145.959 133.557C144.786 129.401 142.086 125.842 138.399 123.594L137.383 122.07C131.687 113.552 122.73 107.76 112.625 106.06C111.277 105.868 110.028 106.805 109.836 108.153C109.65 109.455 110.519 110.674 111.811 110.922C119.1 112.159 125.742 115.862 130.627 121.411C126.52 122.15 122.928 124.617 120.764 128.185C118.109 132.941 119.811 138.949 124.568 141.604C129.324 144.26 135.332 142.557 137.987 137.801C139.001 135.843 139.549 133.676 139.587 131.472C142.211 135.282 142.421 140.258 140.127 144.276C139.433 145.447 139.819 146.96 140.99 147.655C142.161 148.349 143.674 147.963 144.369 146.792C144.391 146.754 144.412 146.716 144.432 146.678C146.673 142.683 147.222 137.959 145.959 133.557ZM133.687 135.394C132.371 137.779 129.371 138.645 126.987 137.329C124.602 136.013 123.736 133.013 125.052 130.629C125.059 130.616 125.067 130.602 125.074 130.589C126.529 128.206 128.984 126.609 131.751 126.244C132.18 126.232 132.604 126.331 132.984 126.53C135.065 127.692 135.176 132.727 133.687 135.394Z" fill="#2BB3CE"/>
</svg>
