<svg width="26" height="31" viewBox="0 0 26 31" fill="none" xmlns="http://www.w3.org/2000/svg">
<path d="M5.491 0.857422C4.48431 0.857422 3.66064 1.68108 3.66064 2.68778V28.3128C3.66064 29.3195 4.48431 30.1431 5.491 30.1431H23.7946C24.8013 30.1431 25.6249 29.3195 25.6249 28.3128V8.17885L18.3035 0.857422H5.491Z" fill="#E2E5E7"/>
<path d="M20.1341 8.17885H25.6251L18.3037 0.857422V6.34849C18.3037 7.35519 19.1274 8.17885 20.1341 8.17885Z" fill="#B0B7BD"/>
<path d="M25.6249 13.6698L20.1338 8.17871H25.6249V13.6698Z" fill="#CAD1D8"/>
<path d="M21.9643 24.6519C21.9643 25.1553 21.5525 25.5671 21.0491 25.5671H0.915179C0.41183 25.5671 0 25.1553 0 24.6519V15.5001C0 14.9968 0.41183 14.585 0.915179 14.585H21.0491C21.5525 14.585 21.9643 14.9968 21.9643 15.5001V24.6519Z" fill="#F15642"/>
<path d="M3.98975 18.1966C3.98975 17.955 4.1801 17.6914 4.48669 17.6914H6.17702C7.12881 17.6914 7.98542 18.3284 7.98542 19.5492C7.98542 20.706 7.12881 21.3503 6.17702 21.3503H4.95526V22.3167C4.95526 22.6389 4.75026 22.821 4.48669 22.821C4.24508 22.821 3.98975 22.6389 3.98975 22.3167V18.1966ZM4.95526 18.613V20.436H6.17702C6.66756 20.436 7.05559 20.0031 7.05559 19.5492C7.05559 19.0376 6.66756 18.613 6.17702 18.613H4.95526Z" fill="white"/>
<path d="M9.41778 22.8215C9.17617 22.8215 8.9126 22.6897 8.9126 22.3685V18.2117C8.9126 17.9491 9.17617 17.7578 9.41778 17.7578H11.0935C14.4375 17.7578 14.3643 22.8215 11.1594 22.8215H9.41778ZM9.87903 18.651V21.9292H11.0935C13.0693 21.9292 13.1572 18.651 11.0935 18.651H9.87903Z" fill="white"/>
<path d="M15.5505 18.7095V19.8727H17.4166C17.6802 19.8727 17.9437 20.1363 17.9437 20.3916C17.9437 20.6332 17.6802 20.8309 17.4166 20.8309H15.5505V22.3675C15.5505 22.6238 15.3684 22.8205 15.1122 22.8205C14.79 22.8205 14.5933 22.6238 14.5933 22.3675V18.2108C14.5933 17.9481 14.7909 17.7568 15.1122 17.7568H17.6811C18.0032 17.7568 18.1936 17.9481 18.1936 18.2108C18.1936 18.4451 18.0032 18.7086 17.6811 18.7086H15.5505V18.7095Z" fill="white"/>
<path d="M21.049 25.5675H3.66064V26.4827H21.049C21.5524 26.4827 21.9642 26.0709 21.9642 25.5675V24.6523C21.9642 25.1557 21.5524 25.5675 21.049 25.5675Z" fill="#CAD1D8"/>
</svg>
