<svg width="15" height="13" viewBox="0 0 15 13" fill="none" xmlns="http://www.w3.org/2000/svg">
<path d="M7.26349 3.24487C7.19309 3.24487 7.13252 3.29462 7.11895 3.36365C6.83815 4.78223 6.36719 7.17656 6.36719 7.27213C6.36719 7.76649 6.76932 8.16882 7.26368 8.16882C7.75805 8.16882 8.16038 7.76669 8.16038 7.27213C8.16038 7.17656 7.68922 4.78223 7.40841 3.36365C7.39445 3.29462 7.33408 3.24487 7.26349 3.24487Z" fill="#2B3C4E"/>
<path d="M12.3643 12.2707C12.3724 12.2639 12.3826 12.2609 12.3901 12.253C13.7096 10.8978 14.4362 9.1097 14.4362 7.21799C14.4362 3.23793 11.1982 0 7.21819 0C7.21406 0 7.21012 0.000196535 7.20599 0.000196535C7.20206 0.000196535 7.19813 0 7.194 0C4.4697 0 2.09523 1.52576 0.879782 3.76749C0.319152 4.79318 0 5.96891 0 7.21799C0 9.12307 0.735642 10.9204 2.07144 12.2786C2.11097 12.3187 2.15993 12.3402 2.21086 12.3527C2.2437 12.3649 2.27811 12.372 2.31292 12.372C2.3843 12.372 2.45588 12.3462 2.51251 12.2941L3.28906 11.5805C3.40901 11.4702 3.41687 11.2838 3.30675 11.1636C3.19624 11.0437 3.00982 11.0358 2.89007 11.1461L2.31429 11.6751C1.25812 10.5151 0.655019 9.04009 0.596222 7.47225H1.42625C1.58907 7.47225 1.72122 7.3403 1.72122 7.17728C1.72122 7.01427 1.58907 6.88232 1.42625 6.88232H0.614117C0.659345 5.86056 0.937792 4.89838 1.39833 4.04849C1.68779 3.51913 2.04824 3.0344 2.46532 2.60474L3.04994 3.18936C3.10755 3.24697 3.18306 3.27568 3.25858 3.27568C3.33409 3.27568 3.4096 3.24697 3.46721 3.18936C3.58245 3.07432 3.58245 2.88731 3.46721 2.77228L2.89498 2.20005C3.98124 1.26265 5.37308 0.670357 6.89943 0.597599V1.40915C6.89943 1.57216 7.03157 1.70411 7.19439 1.70411C7.35721 1.70411 7.48936 1.57216 7.48936 1.40915V0.597009C9.05051 0.666227 10.4716 1.28133 11.567 2.25589L10.9827 2.84012C10.8675 2.95516 10.8675 3.14216 10.9827 3.2572C11.0403 3.31482 11.1159 3.34353 11.1914 3.34353C11.2669 3.34353 11.3424 3.31482 11.4 3.2572L11.9897 2.66747C13.0367 3.78007 13.7023 5.2549 13.7745 6.88232H12.9623C12.7995 6.88232 12.6674 7.01427 12.6674 7.17728C12.6674 7.3403 12.7995 7.47225 12.9623 7.47225H13.8403C13.7817 9.02455 13.1893 10.4876 12.1516 11.6429L11.576 11.141C11.4527 11.0337 11.2669 11.0468 11.1597 11.1695C11.0527 11.2922 11.0655 11.4787 11.1882 11.5856L11.9764 12.2731C12.0324 12.3219 12.1014 12.3459 12.1701 12.3459C12.2119 12.3459 12.2534 12.337 12.292 12.3195C12.2945 12.3185 12.2965 12.3164 12.2991 12.3154C12.3225 12.304 12.3439 12.2886 12.3643 12.2707Z" fill="#2B3C4E"/>
</svg>
