<svg width="111" height="21" viewBox="0 0 111 21" fill="none" xmlns="http://www.w3.org/2000/svg">
<path d="M8.28448 9.3533C9.267 9.35363 10.2399 9.16033 11.1478 8.78444C12.0556 8.40854 12.8805 7.85743 13.5754 7.16256C14.2702 6.4677 14.8215 5.6427 15.1975 4.7347C15.5736 3.82669 15.7672 2.85346 15.7672 1.87061H8.28448V9.3533Z" fill="white"/>
<path d="M0 10.1553C-5.54313e-08 11.1381 0.193571 12.1114 0.569642 13.0194C0.945713 13.9274 1.4969 14.7524 2.19176 15.4472C2.88663 16.1421 3.71154 16.6932 4.61937 17.0691C5.52719 17.445 6.50017 17.6383 7.4827 17.638V10.1553H0Z" fill="white"/>
<path d="M8.28448 10.1553V17.638H15.7672C15.7672 16.6551 15.5736 15.6819 15.1975 14.7739C14.8215 13.8659 14.2702 13.0409 13.5754 12.346C12.8805 11.6511 12.0556 11.1 11.1478 10.7241C10.2399 10.3482 9.267 10.1549 8.28448 10.1553Z" fill="white"/>
<path d="M0 9.3533H7.4827V1.87061C6.50017 1.87028 5.52719 2.06358 4.61937 2.43947C3.71154 2.81537 2.88663 3.36648 2.19176 4.06134C1.4969 4.75621 0.945713 5.58122 0.569642 6.48922C0.193571 7.39723 -5.54312e-08 8.37045 0 9.3533Z" fill="white"/>
<path d="M16.5688 1.87061C16.5688 3.85514 17.3572 5.7584 18.7604 7.16168C20.1637 8.56495 22.067 9.3533 24.0515 9.3533V1.87061H16.5688Z" fill="white"/>
<path d="M16.5688 17.638H24.0515V10.1553C22.067 10.1553 20.1637 10.9436 18.7604 12.3469C17.3572 13.7502 16.5688 15.6534 16.5688 17.638Z" fill="white"/>
<path d="M35.7689 14.4288C37.6532 14.4288 38.9891 13.7613 40.2973 12.4808L41.8822 14.007C40.4155 15.6696 38.5715 16.8359 35.8067 16.8359C31.3261 16.8359 28.3273 13.7613 28.3273 9.88767C28.3273 6.01404 31.4192 2.93945 35.5475 2.93945C39.6105 2.93945 42.491 5.94952 42.491 9.62463C42.4896 10.0118 42.4466 10.3978 42.3627 10.7761H31.3412C31.628 12.8928 33.3941 14.4288 35.7689 14.4288ZM31.4343 8.56254H39.4168C39.0419 6.70637 37.535 5.36141 35.535 5.36141C34.5873 5.36717 33.6689 5.68542 32.9258 6.2655C32.1827 6.84558 31.6577 7.65415 31.4343 8.56254Z" fill="white"/>
<path d="M56.6547 8.35379V16.5687H53.727V8.60273C53.727 6.80293 52.5081 5.5458 50.742 5.5458C48.9187 5.5458 47.3019 7.06183 47.3019 9.23254V16.5687H44.3617V3.24813H47.3019V5.02055C47.763 4.37826 48.3698 3.85468 49.0725 3.49289C49.7753 3.13109 50.5538 2.94141 51.344 2.93945C54.5404 2.93945 56.6547 5.07283 56.6547 8.35379Z" fill="white"/>
<path d="M67.2194 3.20703L63.7228 12.8022L60.2562 3.20703H57.1892L62.2417 16.5265L60.6658 20.8448H63.6004L70.2839 3.20703H67.2194Z" fill="white"/>
<path d="M76.5493 2.94017C77.4414 2.92652 78.3254 3.10906 79.1378 3.47465C79.9502 3.84024 80.6709 4.37981 81.248 5.05459V3.2479H84.1804V16.5275H81.248V14.7357C80.6677 15.4058 79.9461 15.9412 79.1341 16.304C78.3222 16.6668 77.4398 16.8481 76.5493 16.8352C72.7789 16.8352 70.0167 13.7604 70.0167 9.88647C70.0167 6.01252 72.7789 2.94017 76.5493 2.94017ZM77.1298 14.222C79.4791 14.222 81.248 12.3012 81.248 9.8815C81.248 7.46183 79.4967 5.54099 77.1298 5.54099C74.7629 5.54099 72.999 7.47424 72.999 9.8815C72.999 12.2888 74.7804 14.222 77.1298 14.222Z" fill="white"/>
<path d="M107.117 3.24786V5.05173C106.529 4.37761 105.794 3.8387 104.966 3.47363C104.137 3.10856 103.237 2.92639 102.328 2.94018C98.4859 2.94018 95.6716 6.02686 95.6716 9.8877C95.6716 13.7485 98.4757 16.8352 102.328 16.8352C103.235 16.8485 104.135 16.6671 104.963 16.3039C105.791 15.9407 106.526 15.4046 107.117 14.7336V16.5251H110.103V3.24786H107.117ZM102.922 14.22C100.525 14.22 98.7103 12.2995 98.7103 9.88024C98.7103 7.46102 100.495 5.54053 102.922 5.54053C105.348 5.54053 107.117 7.47343 107.117 9.88024C107.117 12.2871 105.315 14.22 102.922 14.22Z" fill="white"/>
<path d="M94.8699 14.6062V14.272H93.617C91.9331 14.272 91.2866 13.5636 91.2866 12.0846V5.76417H94.702V3.19012H91.2966V0H88.3497V3.19261H85.7838V5.76666H88.3573V12.2167C88.3573 15.3295 89.9084 16.8361 92.7274 16.8361C92.8126 16.8361 92.9003 16.8361 92.978 16.8361H94.8674V14.6087L94.8699 14.6062Z" fill="white"/>
</svg>
