<svg width="15" height="9" viewBox="0 0 15 9" fill="none" xmlns="http://www.w3.org/2000/svg">
<path opacity="0.4" d="M7.5 -4.48832e-08C4.63409 -4.48832e-08 2.03513 1.50309 0.117367 3.9445C-0.0391224 4.14452 -0.0391224 4.42396 0.117367 4.62398C2.03513 7.06834 4.63409 8.57143 7.5 8.57143C10.3659 8.57143 12.9649 7.06834 14.8826 4.62692C15.0391 4.4269 15.0391 4.14747 14.8826 3.94745C12.9649 1.50309 10.3659 -4.48832e-08 7.5 -4.48832e-08ZM7.70558 7.30366C5.80316 7.41837 4.23213 5.91529 4.35179 4.08864C4.44998 2.58261 5.72338 1.3619 7.29442 1.26777C9.19684 1.15305 10.7679 2.65614 10.6482 4.48279C10.5469 5.98588 9.27355 7.20659 7.70558 7.30366ZM7.61046 5.9094C6.58561 5.97117 5.73872 5.16227 5.80623 4.17982C5.85839 3.36798 6.54572 2.71203 7.39261 2.65908C8.41746 2.59731 9.26435 3.40622 9.19684 4.38867C9.14161 5.20345 8.45428 5.8594 7.61046 5.9094Z" fill="#4F4F4F"/>
</svg>
