<svg width="148" height="28" viewBox="0 0 148 28" fill="none" xmlns="http://www.w3.org/2000/svg">
<path d="M11.1283 12.5641C12.4481 12.5645 13.755 12.3049 14.9745 11.8C16.1939 11.295 17.302 10.5547 18.2354 9.62135C19.1688 8.68796 19.9092 7.57976 20.4144 6.36007C20.9196 5.14037 21.1796 3.83305 21.1796 2.51282H11.1283V12.5641Z" fill="#7557D3"/>
<path d="M0 13.6411C-7.44592e-08 14.9613 0.260017 16.2686 0.765183 17.4883C1.27035 18.708 2.01074 19.8162 2.94413 20.7496C3.87752 21.683 4.9856 22.4233 6.20506 22.9282C7.42451 23.4331 8.73149 23.6928 10.0513 23.6923V13.6411H0Z" fill="#7557D3"/>
<path d="M11.1283 13.6411V23.6923H21.1796C21.1796 22.3721 20.9196 21.0648 20.4144 19.8451C19.9092 18.6254 19.1688 17.5172 18.2354 16.5838C17.302 15.6504 16.1939 14.9101 14.9745 14.4052C13.755 13.9003 12.4481 13.6406 11.1283 13.6411Z" fill="#7557D3"/>
<path d="M0 12.5641H10.0513V2.51282C8.73149 2.51237 7.42451 2.77203 6.20506 3.27696C4.9856 3.78188 3.87752 4.52218 2.94413 5.45557C2.01074 6.38896 1.27035 7.49717 0.765183 8.71687C0.260017 9.93657 -7.44591e-08 11.2439 0 12.5641Z" fill="#7557D3"/>
<path d="M22.2563 2.51282C22.2563 5.17858 23.3153 7.73517 25.2003 9.62015C27.0853 11.5051 29.6419 12.5641 32.3076 12.5641V2.51282H22.2563Z" fill="#7557D3"/>
<path d="M22.2563 23.6923H32.3076V13.6411C29.6419 13.6411 27.0853 14.7 25.2003 16.585C23.3153 18.47 22.2563 21.0266 22.2563 23.6923Z" fill="#7557D3"/>
<path d="M48.0474 19.382C50.5785 19.382 52.3729 18.4853 54.1301 16.7653L56.2591 18.8153C54.2889 21.0487 51.8119 22.6153 48.0981 22.6153C42.0795 22.6153 38.0513 18.4853 38.0513 13.282C38.0513 8.07867 42.2045 3.94867 47.75 3.94867C53.2076 3.94867 57.0769 7.992 57.0769 12.9287C57.0751 13.4488 57.0173 13.9672 56.9046 14.4753H42.0997C42.485 17.3187 44.8573 19.382 48.0474 19.382ZM42.2248 11.502H52.9474C52.4439 9.00866 50.4196 7.20201 47.7331 7.20201C46.4601 7.20975 45.2264 7.63724 44.2283 8.41644C43.2301 9.19565 42.5249 10.2818 42.2248 11.502Z" fill="#7557D3"/>
<path d="M76.1026 11.2216V22.2564H72.1699V11.556C72.1699 9.13836 70.5326 7.44969 68.1603 7.44969C65.7111 7.44969 63.5392 9.48613 63.5392 12.402V22.2564H59.5898V4.36331H63.5392V6.74414C64.1586 5.88137 64.9738 5.17807 65.9177 4.69208C66.8616 4.20609 67.9074 3.9513 68.9689 3.94867C73.2625 3.94867 76.1026 6.81437 76.1026 11.2216Z" fill="#7557D3"/>
<path d="M90.2938 4.30768L85.5969 17.1966L80.9403 4.30768H76.8205L83.6074 22.1993L81.4905 28H85.4325L94.4102 4.30768H90.2938Z" fill="#7557D3"/>
<path d="M102.826 3.94963C104.025 3.9313 105.212 4.17649 106.303 4.66758C107.395 5.15867 108.363 5.88346 109.138 6.78986V4.36299H113.077V22.2011H109.138V19.7943C108.359 20.6943 107.389 21.4135 106.298 21.9008C105.208 22.3882 104.023 22.6318 102.826 22.6145C97.7617 22.6145 94.0513 18.4841 94.0513 13.2804C94.0513 8.07662 97.7617 3.94963 102.826 3.94963ZM103.606 19.1042C106.762 19.1042 109.138 16.524 109.138 13.2737C109.138 10.0234 106.785 7.44324 103.606 7.44324C100.427 7.44324 98.0574 10.0401 98.0574 13.2737C98.0574 16.5073 100.45 19.1042 103.606 19.1042Z" fill="#7557D3"/>
<path d="M143.888 4.36294V6.78603C143.097 5.8805 142.109 5.15659 140.997 4.66621C139.885 4.17583 138.675 3.93112 137.454 3.94965C132.293 3.94965 128.513 8.09589 128.513 13.282C128.513 18.4682 132.279 22.6144 137.454 22.6144C138.673 22.6323 139.882 22.3886 140.994 21.9007C142.106 21.4128 143.094 20.6927 143.888 19.7914V22.1978H147.897V4.36294H143.888ZM138.251 19.1015C135.033 19.1015 132.595 16.5217 132.595 13.272C132.595 10.0224 134.991 7.44262 138.251 7.44262C141.511 7.44262 143.888 10.039 143.888 13.272C143.888 16.505 141.467 19.1015 138.251 19.1015Z" fill="#7557D3"/>
<path d="M127.436 19.6201V19.1711H125.753C123.491 19.1711 122.623 18.2196 122.623 16.2328V7.74283H127.21V4.28519H122.636V0H118.678V4.28854H115.231V7.74619H118.688V16.4104C118.688 20.5917 120.771 22.6154 124.558 22.6154C124.672 22.6154 124.79 22.6154 124.895 22.6154H127.433V19.6235L127.436 19.6201Z" fill="#7557D3"/>
</svg>
