<svg width="18" height="20" viewBox="0 0 18 20" fill="none" xmlns="http://www.w3.org/2000/svg">
<g clip-path="url(#clip0_4_234)">
<path d="M2.27454 8.4936C2.25868 8.28948 2.2506 8.08319 2.2506 7.875C2.2506 3.52576 5.77635 0 10.1256 0C14.4748 0 18.0006 3.52576 18.0006 7.875C18.0006 12.2242 14.4748 15.75 10.1256 15.75C7.52742 15.75 5.22315 14.4918 3.78882 12.5514L4.39192 12.1056C5.72796 13.913 7.8355 15 10.1256 15C14.0606 15 17.2506 11.81 17.2506 7.875C17.2506 3.93997 14.0606 0.75 10.1256 0.75C6.19057 0.75 3.0006 3.93997 3.0006 7.875C3.0006 8.06682 3.00818 8.2576 3.02321 8.44707L4.23541 7.23484L4.76578 7.76516L2.6256 9.90532L0.485413 7.76516L1.01578 7.23484L2.27454 8.4936ZM10.5006 3.75V8.08161L13.7497 10.9697L13.2515 11.5303L9.7506 8.41839V3.75H10.5006Z" fill="black"/>
</g>
<defs>
<clipPath id="clip0_4_234">
<rect width="18" height="19.6875" fill="white"/>
</clipPath>
</defs>
</svg>
