<svg width="72" height="72" viewBox="0 0 72 72" fill="none" xmlns="http://www.w3.org/2000/svg">
<g clip-path="url(#clip0_4_668)">
<path d="M64.8 69.6H61.2V64.8H55.2V52.5336C55.2 49.2936 53.5896 46.284 50.8932 44.4864L38.1636 36L50.8932 27.5136C53.5896 25.716 55.2 22.7064 55.2 19.4664V7.2H61.2V2.4H64.8C65.4624 2.4 66 1.8636 66 1.2C66 0.5364 65.4624 0 64.8 0H61.2H60H12H10.8H7.2C6.5376 0 6 0.5364 6 1.2C6 1.8636 6.5376 2.4 7.2 2.4H10.8V7.2H16.8V19.4664C16.8 22.7064 18.4104 25.716 21.1068 27.5136L33.8364 36L21.1068 44.4864C18.4104 46.284 16.8 49.2936 16.8 52.5336V64.8H10.8V69.6H7.2C6.5376 69.6 6 70.1364 6 70.8C6 71.4636 6.5376 72 7.2 72H10.8H12H60H61.2H64.8C65.4624 72 66 71.4636 66 70.8C66 70.1364 65.4624 69.6 64.8 69.6ZM22.4376 25.5168C20.4108 24.1644 19.2 21.9024 19.2 19.4664V7.2H52.8V19.4664C52.8 21.9024 51.5892 24.1644 49.5624 25.5168L36 34.5576L22.4376 25.5168ZM19.2 52.5336C19.2 50.0976 20.4108 47.8356 22.4376 46.4832L36 37.4424L49.5624 46.4832C51.5892 47.8356 52.8 50.0976 52.8 52.5336V64.8H19.2V52.5336Z" fill="#2B3C4E"/>
<path d="M25.1005 21.5233C24.4117 21.0637 24.0001 20.2945 24.0001 19.4665V16.8001C24.0001 16.1365 23.4625 15.6001 22.8001 15.6001C22.1377 15.6001 21.6001 16.1365 21.6001 16.8001V19.4665C21.6001 21.0997 22.4113 22.6153 23.7697 23.5201L29.3353 27.2305C29.5393 27.3661 29.7709 27.4321 30.0001 27.4321C30.3877 27.4321 30.7681 27.2449 30.9997 26.8981C31.3669 26.3461 31.2181 25.6021 30.6673 25.2337L25.1005 21.5233Z" fill="#2B3C4E"/>
<path d="M48.2303 49.5121L42.6647 45.8017C42.1127 45.4333 41.3687 45.5821 41.0003 46.1341C40.6331 46.6861 40.7819 47.4301 41.3327 47.7985L46.8983 51.5089C47.5883 51.9685 47.9999 52.7365 47.9999 53.5657V56.2321C47.9999 56.8957 48.5375 57.4321 49.1999 57.4321C49.8623 57.4321 50.3999 56.8957 50.3999 56.2321V53.5657C50.3999 51.9313 49.5887 50.4169 48.2303 49.5121Z" fill="#2B3C4E"/>
</g>
<defs>
<clipPath id="clip0_4_668">
<rect width="72" height="72" fill="white"/>
</clipPath>
</defs>
</svg>
