<svg width="15" height="14" viewBox="0 0 15 14" fill="none" xmlns="http://www.w3.org/2000/svg">
<path d="M7.98318 8.7738e-05C8.13563 -0.00015831 8.28725 0.0224724 8.43298 0.0672226L12.5752 1.30921C13.0073 1.45504 13.3846 1.72916 13.6569 2.09501C13.9292 2.46085 14.0835 2.90102 14.0991 3.3568L14.0991 10.0702C14.0768 10.5202 13.9195 10.953 13.6477 11.3122C13.3758 11.6715 13.0021 11.9405 12.5752 12.0843L8.43298 13.3598C8.2321 13.4283 8.01784 13.4482 7.80779 13.4178C7.59773 13.3875 7.39786 13.3078 7.22457 13.1853C7.05906 13.0547 6.92662 12.887 6.83798 12.6957C6.74934 12.5044 6.70698 12.295 6.71434 12.0843L6.71434 9.3989C6.71434 9.30987 6.74971 9.22449 6.81266 9.16154C6.87561 9.09859 6.96099 9.06322 7.05002 9.06322C7.13904 9.06322 7.22442 9.09859 7.28737 9.16154C7.35032 9.22449 7.38569 9.30987 7.38569 9.3989L7.38569 12.0843C7.37826 12.1907 7.39631 12.2974 7.43834 12.3955C7.48037 12.4935 7.54517 12.5802 7.62737 12.6482C7.71594 12.7083 7.8176 12.7464 7.92387 12.7592C8.03015 12.7721 8.13795 12.7593 8.23829 12.722L12.3805 11.4801C12.6741 11.3738 12.93 11.1834 13.1163 10.9327C13.3025 10.682 13.4108 10.3821 13.4278 10.0702L13.4278 3.3568C13.4108 3.04496 13.3025 2.745 13.1163 2.49431C12.93 2.24361 12.6741 2.05326 12.3805 1.94698L8.23829 0.704998C8.13908 0.663417 8.03073 0.648469 7.92397 0.661633C7.81721 0.674797 7.71573 0.715616 7.62959 0.780051C7.54346 0.844485 7.47564 0.9303 7.43286 1.029C7.39008 1.1277 7.37382 1.23586 7.38569 1.34277L7.38569 4.02815C7.38569 4.11717 7.35032 4.20255 7.28737 4.2655C7.22442 4.32845 7.13904 4.36382 7.05002 4.36382C6.96099 4.36382 6.87561 4.32845 6.81266 4.2655C6.74971 4.20255 6.71434 4.11717 6.71434 4.02815L6.71434 1.34277C6.70698 1.13208 6.74934 0.922623 6.83798 0.731345C6.92662 0.540068 7.05906 0.372351 7.22457 0.241772C7.44474 0.0814714 7.71086 -0.0033102 7.98318 8.7738e-05Z" fill="#2B3C4E"/>
<path d="M1.67919 4.36379C1.74544 4.36512 1.81021 4.38363 1.86716 4.4175C1.9412 4.46796 1.99251 4.54543 2.01008 4.63329C2.02766 4.72114 2.01009 4.81239 1.96115 4.88744L0.739306 6.7135L1.96115 8.53955C2.01101 8.61433 2.02911 8.70585 2.01148 8.79399C1.99386 8.88212 1.94194 8.95964 1.86716 9.00949C1.79238 9.05934 1.70086 9.07745 1.61273 9.05982C1.5246 9.0422 1.44708 8.99028 1.39722 8.9155L0.0545354 6.90147C0.0186651 6.84534 -0.000394821 6.78011 -0.000394821 6.7135C-0.000394821 6.64688 0.0186651 6.58165 0.0545354 6.52552L1.39722 4.51149C1.42915 4.46628 1.47137 4.42932 1.52039 4.40364C1.56942 4.37796 1.62385 4.3643 1.67919 4.36379Z" fill="#2B3C4E"/>
<path d="M0.336495 6.37773L12.4207 6.37773C12.5097 6.37773 12.5951 6.41309 12.658 6.47604C12.721 6.539 12.7563 6.62437 12.7563 6.7134C12.7563 6.80243 12.721 6.88781 12.658 6.95076C12.5951 7.01371 12.5097 7.04907 12.4207 7.04907L0.336495 7.04907C0.247469 7.04907 0.162089 7.01371 0.0991392 6.95076C0.0361881 6.88781 0.000823021 6.80243 0.000823021 6.7134C0.000823021 6.62437 0.0361881 6.539 0.0991392 6.47604C0.162089 6.41309 0.247469 6.37773 0.336495 6.37773Z" fill="#2B3C4E"/>
</svg>
