<svg width="19" height="17" viewBox="0 0 19 17" fill="none" xmlns="http://www.w3.org/2000/svg">
<path d="M19.0002 12.2217C19.0002 14.8566 16.8847 16.991 14.2498 17.0004H14.2403H4.88113C2.25565 17.0004 0.111816 14.8755 0.111816 12.2406V12.2311C0.111816 12.2311 0.117483 8.05113 0.125038 5.94886C0.125983 5.55409 0.579304 5.3331 0.888129 5.57865C3.13207 7.35887 7.1449 10.6048 7.19496 10.6473C7.8655 11.1847 8.71547 11.4879 9.58434 11.4879C10.4532 11.4879 11.3032 11.1847 11.9737 10.637C12.0238 10.6039 15.9469 7.45521 18.2248 5.6457C18.5346 5.39921 18.9898 5.6202 18.9907 6.01402C19.0002 8.10024 19.0002 12.2217 19.0002 12.2217Z" fill="#7557D3"/>
<path d="M18.5055 2.52586C17.6876 0.984573 16.0783 0.000488281 14.3066 0.000488281H4.88127C3.10954 0.000488281 1.50025 0.984573 0.682379 2.52586C0.499162 2.87058 0.586048 3.30029 0.891095 3.54395L7.90341 9.15285C8.3945 9.54951 8.98949 9.74689 9.58447 9.74689C9.58825 9.74689 9.59108 9.74689 9.59391 9.74689C9.59675 9.74689 9.60053 9.74689 9.60336 9.74689C10.1983 9.74689 10.7933 9.54951 11.2844 9.15285L18.2967 3.54395C18.6018 3.30029 18.6887 2.87058 18.5055 2.52586Z" fill="#7557D3"/>
</svg>
