<svg width="14" height="14" viewBox="0 0 14 14" fill="none" xmlns="http://www.w3.org/2000/svg">
<g clip-path="url(#clip0_5614_458)">
<path d="M8.64975 4.52469L5.35042 7.8246C5.2947 7.87842 5.25027 7.94278 5.21969 8.01395C5.18912 8.08512 5.17303 8.16167 5.17236 8.23912C5.17168 8.31658 5.18644 8.39339 5.21577 8.46508C5.2451 8.53677 5.28842 8.6019 5.34319 8.65667C5.39796 8.71144 5.46309 8.75475 5.53478 8.78408C5.60647 8.81341 5.68328 8.82817 5.76074 8.8275C5.83819 8.82683 5.91474 8.81074 5.9859 8.78016C6.05707 8.74959 6.12144 8.70515 6.17525 8.64944L9.47517 5.3501C9.80339 5.02189 9.98778 4.57673 9.98778 4.11256C9.98778 3.64839 9.80339 3.20324 9.47517 2.87502C9.14695 2.54681 8.7018 2.36241 8.23763 2.36241C7.77346 2.36241 7.3283 2.54681 7.00009 2.87502L3.70017 6.17494C3.42371 6.44451 3.20354 6.7663 3.05241 7.12163C2.90129 7.47696 2.82222 7.85876 2.8198 8.24488C2.81738 8.63101 2.89166 9.01377 3.03832 9.37097C3.18498 9.72816 3.40111 10.0527 3.67416 10.3257C3.94722 10.5987 4.27177 10.8148 4.62898 10.9614C4.9862 11.108 5.36897 11.1822 5.7551 11.1798C6.14122 11.1773 6.52301 11.0982 6.87832 10.947C7.23363 10.7958 7.55538 10.5756 7.82492 10.2991L11.1248 6.99977L11.9497 7.8246L8.64975 11.1245C8.27056 11.5037 7.82039 11.8045 7.32496 12.0097C6.82952 12.2149 6.29851 12.3206 5.76225 12.3206C5.22599 12.3206 4.69499 12.2149 4.19955 12.0097C3.70411 11.8045 3.25394 11.5037 2.87475 11.1245C2.49556 10.7453 2.19477 10.2952 1.98955 9.79973C1.78433 9.30429 1.67871 8.77328 1.67871 8.23702C1.67871 7.70076 1.78433 7.16976 1.98955 6.67432C2.19477 6.17888 2.49556 5.72871 2.87475 5.34952L6.17525 2.05019C6.72534 1.51889 7.4621 1.22491 8.22684 1.23156C8.99158 1.2382 9.72312 1.54494 10.2639 2.08572C10.8047 2.62649 11.1114 3.35803 11.1181 4.12277C11.1247 4.88751 10.8307 5.62427 10.2994 6.17435L7.00009 9.47544C6.83753 9.63795 6.64456 9.76686 6.43219 9.8548C6.21981 9.94274 5.9922 9.98799 5.76234 9.98796C5.53248 9.98793 5.30487 9.94263 5.09252 9.85464C4.88017 9.76665 4.68723 9.6377 4.52471 9.47515C4.36219 9.31259 4.23329 9.11962 4.14535 8.90725C4.05741 8.69487 4.01216 8.46726 4.01219 8.2374C4.01222 8.00754 4.05752 7.77993 4.14551 7.56758C4.23349 7.35523 4.36245 7.16229 4.525 6.99977L7.82492 3.69985L8.64975 4.52469Z" fill="#2B3C4E"/>
</g>
<defs>
<clipPath id="clip0_5614_458">
<rect width="14" height="14" fill="white"/>
</clipPath>
</defs>
</svg>
