<svg width="14" height="16" viewBox="0 0 14 16" fill="none" xmlns="http://www.w3.org/2000/svg">
<path d="M0.325208 0.000394551C0.235985 0.00880643 0.153136 0.0503088 0.0929551 0.116737C0.0327743 0.183166 -0.000383216 0.269722 3.34225e-06 0.35937V14.718C1.50989e-05 14.8132 0.0378262 14.9045 0.105121 14.9718C0.172415 15.0392 0.263682 15.077 0.35885 15.077H10.7654C10.8606 15.077 10.9518 15.0392 11.0191 14.9718C11.0864 14.9045 11.1242 14.8132 11.1243 14.718V12.4913C11.2993 12.3836 11.4667 12.2642 11.6233 12.1323L13.3839 13.8935C13.4171 13.9277 13.4569 13.955 13.5008 13.9736C13.5447 13.9923 13.5919 14.002 13.6396 14.0022C13.6873 14.0024 13.7346 13.9931 13.7787 13.9748C13.8228 13.9565 13.8627 13.9296 13.8963 13.8956C13.9298 13.8617 13.9563 13.8214 13.9741 13.7771C13.9919 13.7329 14.0007 13.6855 14 13.6377C13.9992 13.59 13.989 13.5429 13.9699 13.4992C13.9507 13.4555 13.9231 13.416 13.8885 13.3831L12.1335 11.6275C12.7362 10.9099 13.0979 9.98298 13.0979 8.97456C13.0979 7.48838 12.3056 6.18456 11.1243 5.45781V3.59007C11.1246 3.54212 11.1154 3.49459 11.0971 3.45028C11.0788 3.40597 11.0518 3.36576 11.0177 3.33205L7.7881 0.101357C7.72048 0.0359201 7.62987 -0.000338268 7.53579 0.000394551H0.35885C0.347642 -0.000131517 0.336416 -0.000131517 0.325208 0.000394551ZM0.717697 0.718335H6.99752V3.76954C6.99753 3.86474 7.03534 3.95604 7.10263 4.02336C7.16993 4.09068 7.26119 4.1285 7.35636 4.12851H10.4066V5.10445C9.95974 4.93825 9.47513 4.84645 8.97117 4.84645C7.56207 4.84645 6.31794 5.55977 5.57334 6.64127H2.33251C2.3213 6.64075 2.31007 6.64075 2.29887 6.64127C2.25161 6.64329 2.20521 6.65463 2.16234 6.67463C2.11948 6.69463 2.08098 6.72291 2.04906 6.75783C2.01715 6.79276 1.99244 6.83363 1.97636 6.87813C1.96027 6.92263 1.95314 6.96988 1.95535 7.01714C1.95757 7.06441 1.96909 7.11077 1.98926 7.15356C2.00943 7.19636 2.03786 7.23475 2.0729 7.26653C2.10794 7.29832 2.14892 7.32287 2.19347 7.33877C2.23802 7.35467 2.28527 7.36161 2.33251 7.3592H5.17525C5.00793 7.75095 4.89959 8.17313 4.86126 8.61561H2.33251C2.3213 8.61508 2.31007 8.61508 2.29887 8.61561C2.25152 8.6175 2.20502 8.62874 2.16203 8.64869C2.11905 8.66864 2.08044 8.6969 2.04842 8.73184C2.0164 8.76678 1.9916 8.8077 1.97546 8.85227C1.95933 8.89683 1.95216 8.94416 1.95438 8.99151C1.9566 9.03886 1.96816 9.08529 1.98839 9.12815C2.00863 9.17101 2.03714 9.20944 2.07229 9.24123C2.10743 9.27302 2.14852 9.29754 2.19318 9.31338C2.23784 9.32922 2.28519 9.33606 2.33251 9.33352H4.86126C4.89959 9.77597 5.00793 10.1982 5.17525 10.5899H2.33251C2.3213 10.5894 2.31007 10.5894 2.29887 10.5899C2.25174 10.5921 2.20551 10.6036 2.16282 10.6237C2.12013 10.6438 2.08181 10.6721 2.05005 10.707C1.98591 10.7774 1.95238 10.8705 1.95684 10.9657C1.9613 11.0609 2.00339 11.1504 2.07384 11.2146C2.14429 11.2788 2.23734 11.3123 2.33251 11.3078H5.57334C5.92773 11.8226 6.39629 12.2542 6.94145 12.5642H2.33251C2.3213 12.5637 2.31007 12.5637 2.29887 12.5642C2.25174 12.5664 2.20551 12.5779 2.16282 12.598C2.12013 12.6181 2.08181 12.6464 2.05005 12.6813C1.98591 12.7517 1.95238 12.8448 1.95684 12.94C1.9613 13.0352 2.00339 13.1248 2.07384 13.1889C2.14429 13.2531 2.23734 13.2866 2.33251 13.2822H8.79175C8.85679 13.2832 8.92088 13.2665 8.97718 13.2339C9.03347 13.2013 9.07985 13.154 9.11135 13.0971C9.56489 13.0818 10.0012 12.9954 10.4066 12.8447V14.3591H0.717697V0.718335ZM7.71521 1.04365L10.0814 3.41058H7.71521V1.04365ZM8.97117 5.56438C10.8582 5.56438 12.3802 7.08691 12.3802 8.97456C12.3802 10.8622 10.8582 12.3847 8.97117 12.3847C7.08416 12.3847 5.56213 10.8622 5.56213 8.97456C5.56213 7.08691 7.08416 5.56438 8.97117 5.56438ZM10.5523 7.35358C10.4581 7.36308 10.3714 7.40945 10.3112 7.4826L8.38805 9.72614L7.58625 9.05309C7.51258 8.99268 7.41799 8.96391 7.32317 8.97306C7.22835 8.98221 7.14101 9.02855 7.08025 9.10194C7.01948 9.17532 6.99023 9.26978 6.9989 9.36468C7.00756 9.45958 7.05343 9.54719 7.12648 9.60836L8.20302 10.5058C8.27595 10.5666 8.37001 10.596 8.4646 10.5876C8.55918 10.5792 8.64658 10.5336 8.70765 10.4609L10.8607 7.94813C10.9087 7.89381 10.9391 7.82623 10.948 7.75429C10.9568 7.68234 10.9437 7.60942 10.9103 7.54508C10.877 7.48074 10.8249 7.42801 10.761 7.39383C10.6971 7.35965 10.6244 7.34562 10.5523 7.35358Z" fill="black"/>
</svg>
