<svg width="16" height="17" viewBox="0 0 16 17" fill="none" xmlns="http://www.w3.org/2000/svg">
<path fill-rule="evenodd" clip-rule="evenodd" d="M14.7963 5.20745L14.3064 4.35731C13.8919 3.63797 12.9734 3.38981 12.2531 3.80256V3.80256C11.9102 4.00455 11.501 4.06186 11.1159 3.96185C10.7307 3.86183 10.4011 3.61272 10.1998 3.26943C10.0703 3.05123 10.0007 2.8027 9.99806 2.54897V2.54897C10.0097 2.14219 9.85627 1.748 9.57261 1.45619C9.28895 1.16439 8.89926 0.999832 8.49231 1H7.50529C7.1066 0.999996 6.72434 1.15887 6.4431 1.44146C6.16187 1.72405 6.00483 2.10706 6.00675 2.50575V2.50575C5.99493 3.3289 5.32423 3.98997 4.501 3.98988C4.24728 3.98725 3.99875 3.91766 3.78055 3.78815V3.78815C3.06022 3.3754 2.14172 3.62356 1.72726 4.3429L1.20132 5.20745C0.787363 5.92589 1.03214 6.84381 1.74887 7.26074V7.26074C2.21475 7.52971 2.50175 8.0268 2.50175 8.56476C2.50175 9.10271 2.21475 9.5998 1.74887 9.86878V9.86878C1.03305 10.2829 0.788006 11.1986 1.20132 11.9149V11.9149L1.69844 12.7722C1.89263 13.1226 2.21845 13.3812 2.60381 13.4907C2.98916 13.6002 3.40227 13.5517 3.75173 13.3558V13.3558C4.09526 13.1553 4.50464 13.1004 4.88886 13.2032C5.27308 13.306 5.60031 13.5581 5.79782 13.9033C5.92732 14.1215 5.99691 14.37 5.99954 14.6238V14.6238C5.99954 15.4554 6.67369 16.1295 7.50529 16.1295H8.49231C9.32111 16.1295 9.99409 15.4598 9.99806 14.631V14.631C9.99613 14.231 10.1542 13.8469 10.437 13.5641C10.7198 13.2813 11.1039 13.1233 11.5038 13.1252C11.7569 13.132 12.0044 13.2013 12.2243 13.327V13.327C12.9427 13.7409 13.8606 13.4961 14.2775 12.7794V12.7794L14.7963 11.9149C14.9971 11.5702 15.0522 11.1598 14.9494 10.7744C14.8466 10.389 14.5945 10.0605 14.2487 9.86157V9.86157C13.903 9.66267 13.6508 9.33416 13.5481 8.94877C13.4453 8.56338 13.5004 8.15292 13.7012 7.80828C13.8318 7.58032 14.0208 7.39131 14.2487 7.26074V7.26074C14.9612 6.84404 15.2054 5.93148 14.7963 5.21465V5.21465V5.20745Z" stroke="black" stroke-width="0.8" stroke-linecap="round" stroke-linejoin="round"/>
<circle cx="8.00239" cy="8.56416" r="2.0749" stroke="black" stroke-width="0.8" stroke-linecap="round" stroke-linejoin="round"/>
</svg>
