<svg width="7" height="11" viewBox="0 0 7 11" fill="none" xmlns="http://www.w3.org/2000/svg">
<path d="M0.23291 4.01364L3.33046 0.256296C3.41851 0.148943 3.58255 0.148943 3.67181 0.256296L6.76936 4.01364C6.88757 4.15718 6.78625 4.3755 6.59928 4.3755H0.402985C0.216023 4.3755 0.113495 4.15838 0.23291 4.01364Z" fill="white"/>
<path d="M0.360668 4.14151C0.436659 4.04984 0.51265 3.95816 0.587435 3.86529C0.77681 3.6349 0.966185 3.40572 1.15677 3.17533C1.40283 2.8774 1.64769 2.57947 1.89376 2.28153C2.14224 1.98119 2.38951 1.67963 2.63799 1.37929C2.83098 1.14528 3.02277 0.912486 3.21577 0.678481C3.29658 0.580778 3.37498 0.480663 3.45821 0.385372C3.46183 0.380547 3.48957 0.355217 3.4751 0.366073C3.45821 0.379341 3.51249 0.350392 3.48837 0.358836C3.47269 0.364867 3.53541 0.358836 3.49319 0.358836C3.52938 0.358836 3.46907 0.357629 3.50526 0.358836C3.50767 0.358836 3.533 0.367279 3.51249 0.360042C3.48957 0.351598 3.51973 0.363661 3.51852 0.363661C3.52094 0.363661 3.54265 0.380547 3.52576 0.367279C3.51008 0.355217 3.53059 0.372104 3.53179 0.374516C3.53541 0.378135 3.53903 0.38296 3.54265 0.386579C3.54868 0.393816 3.55471 0.401053 3.56074 0.40829C3.60175 0.457745 3.64276 0.507199 3.68257 0.556654C3.85144 0.76171 4.02031 0.966765 4.18918 1.17182C4.4268 1.4601 4.66442 1.74839 4.90205 2.03667C5.15414 2.34305 5.40745 2.64943 5.65955 2.9558C5.86943 3.21031 6.07931 3.46482 6.28919 3.71933C6.40016 3.85322 6.50992 3.98832 6.62089 4.12221C6.62572 4.12824 6.63175 4.13668 6.63778 4.14271C6.63899 4.14271 6.60763 4.10291 6.62331 4.12462C6.62693 4.13065 6.63054 4.13789 6.63537 4.14392C6.63296 4.14151 6.62813 4.11497 6.63175 4.13306C6.63296 4.1391 6.63537 4.14633 6.63778 4.15357C6.64622 4.18131 6.64261 4.13065 6.63657 4.1596C6.63537 4.16443 6.63175 4.18614 6.63657 4.16201C6.64381 4.13427 6.63416 4.16804 6.63296 4.17046C6.6221 4.18614 6.63778 4.16081 6.63899 4.15839C6.63537 4.16443 6.63296 4.17046 6.62934 4.17649C6.62572 4.18252 6.6221 4.18734 6.61848 4.19338C6.6221 4.18734 6.62813 4.16925 6.62572 4.18252C6.62451 4.18614 6.61366 4.19337 6.61124 4.19699C6.61607 4.19217 6.62693 4.17649 6.62089 4.18855C6.61848 4.19217 6.60642 4.19579 6.6028 4.1982C6.61366 4.19096 6.62692 4.18855 6.60642 4.19458C6.57626 4.20423 6.62934 4.19699 6.59556 4.19579C6.59436 4.19579 6.59436 4.19579 6.59315 4.19579C6.58833 4.19579 6.58471 4.19579 6.57988 4.19579C6.563 4.19579 6.5449 4.19579 6.52802 4.19579C6.35191 4.19579 6.1746 4.19579 5.99849 4.19579C5.69453 4.19579 5.38935 4.19579 5.08539 4.19579C4.70423 4.19579 4.32427 4.19579 3.94311 4.19579C3.54265 4.19579 3.14098 4.19579 2.74052 4.19579C2.37383 4.19579 2.00835 4.19579 1.64166 4.19579C1.36544 4.19579 1.08801 4.19579 0.81179 4.19579C0.679107 4.19579 0.54763 4.19699 0.414947 4.19579C0.411329 4.19579 0.40771 4.19579 0.404091 4.19579C0.402885 4.19579 0.402885 4.19579 0.401679 4.19579C0.399267 4.19579 0.401679 4.19458 0.393235 4.19579C0.373936 4.1982 0.399267 4.19699 0.404091 4.1982C0.400473 4.19699 0.384792 4.19579 0.383586 4.19338C0.379967 4.18614 0.383586 4.19217 0.394442 4.19941C0.390823 4.19699 0.378761 4.19338 0.376349 4.18976C0.370318 4.17769 0.381173 4.19337 0.385998 4.1982C0.383586 4.19458 0.37273 4.18855 0.371524 4.18373C0.369111 4.17046 0.375142 4.18855 0.378761 4.19458C0.375142 4.18855 0.371524 4.18373 0.367905 4.17769C0.364287 4.17166 0.361874 4.16563 0.358255 4.1596C0.359462 4.16201 0.375142 4.18734 0.364287 4.17166C0.360668 4.16684 0.361874 4.15839 0.359462 4.15236C0.359462 4.15236 0.36308 4.18855 0.361874 4.16684C0.361874 4.16081 0.36308 4.15236 0.361874 4.14633C0.36308 4.14995 0.352224 4.1789 0.359462 4.16081C0.361874 4.15357 0.375142 4.11738 0.365493 4.13548C0.355843 4.15478 0.383586 4.11135 0.387204 4.10653C0.447515 4.02933 0.399267 3.90388 0.322069 3.85925C0.229191 3.80498 0.133901 3.84599 0.0747963 3.92439C-0.0241129 4.05345 -0.0241128 4.25007 0.0699715 4.38154C0.149581 4.49252 0.266584 4.55403 0.404091 4.55765C0.437865 4.55886 0.470433 4.55765 0.504207 4.55765C0.704438 4.55765 0.904668 4.55765 1.10369 4.55765C1.43058 4.55765 1.75746 4.55765 2.08313 4.55765C2.47877 4.55765 2.87441 4.55765 3.27004 4.55765C3.67895 4.55765 4.08665 4.55765 4.49555 4.55765C4.8538 4.55765 5.21325 4.55765 5.57149 4.55765C5.8248 4.55765 6.07689 4.55765 6.3302 4.55765C6.45082 4.55765 6.60763 4.57816 6.72463 4.53714C6.88747 4.47925 7.00567 4.32244 6.99964 4.14633C6.99603 4.04381 6.95501 3.96058 6.89229 3.88338C6.86214 3.84599 6.83077 3.80859 6.79941 3.7712C6.64019 3.57821 6.48218 3.38521 6.32296 3.19343C6.08292 2.90273 5.84289 2.61083 5.60285 2.32013C5.34472 2.00652 5.08539 1.6929 4.82726 1.37929C4.60894 1.11513 4.39061 0.849763 4.17229 0.585603C4.05408 0.442064 3.93587 0.298525 3.81766 0.156193C3.70428 0.0186847 3.51732 -0.0404195 3.34845 0.0295406C3.26522 0.0645207 3.21094 0.120006 3.15666 0.186348C3.02157 0.350392 2.88647 0.514437 2.75137 0.678481C2.52461 0.953497 2.29663 1.22972 2.06987 1.50473C1.80933 1.82076 1.54878 2.13679 1.28824 2.45282C1.05665 2.73386 0.825059 3.0137 0.594673 3.29475C0.451134 3.46844 0.307595 3.64214 0.165262 3.81583C0.144756 3.83996 0.125457 3.86408 0.104951 3.8882C0.0434348 3.96299 0.0313727 4.07034 0.104951 4.14392C0.168881 4.20544 0.297945 4.2175 0.360668 4.14151Z" fill="white"/>
<path d="M0.23291 6.37407L3.33046 10.1314C3.41851 10.2388 3.58255 10.2388 3.67181 10.1314L6.76936 6.37407C6.88757 6.23053 6.78625 6.01221 6.59928 6.01221H0.402985C0.216023 6.01221 0.113495 6.22932 0.23291 6.37407Z" fill="white"/>
<path d="M0.105595 6.50185C0.183998 6.59714 0.262402 6.69243 0.342012 6.78772C0.538624 7.02655 0.736442 7.26538 0.933054 7.50421C1.18636 7.81179 1.43966 8.11817 1.69297 8.42576C1.94386 8.72972 2.19354 9.03368 2.44443 9.33644C2.6326 9.56442 2.82077 9.79239 3.00894 10.0216C3.11388 10.1494 3.22003 10.3219 3.38648 10.3738C3.55053 10.4244 3.71819 10.3569 3.82313 10.2302C3.86656 10.1772 3.90998 10.1253 3.9534 10.0722C4.13072 9.85632 4.30923 9.64041 4.48655 9.4257C4.73261 9.12656 4.97989 8.82742 5.22595 8.52828C5.48167 8.21829 5.73739 7.90708 5.9931 7.59709C6.19936 7.3474 6.40563 7.09772 6.61189 6.84683C6.70597 6.73224 6.80126 6.62006 6.89414 6.50426C6.96048 6.42224 7.00511 6.32936 7.00029 6.22201C6.99305 6.0459 6.87122 5.88548 6.69873 5.84326C6.64325 5.82999 6.59018 5.8312 6.53348 5.8312C6.35255 5.8312 6.17162 5.8312 5.98948 5.8312C5.67466 5.8312 5.35984 5.8312 5.04502 5.8312C4.65421 5.8312 4.2634 5.8312 3.87379 5.8312C3.46609 5.8312 3.05719 5.8312 2.64949 5.8312C2.28039 5.8312 1.91129 5.8312 1.54219 5.8312C1.27441 5.8312 1.00543 5.8312 0.737648 5.8312C0.626677 5.8312 0.515706 5.82758 0.404735 5.8312C0.266021 5.83482 0.146606 5.89875 0.0682022 6.01334C-0.0222635 6.14481 -0.0210572 6.33781 0.0778519 6.46566C0.136956 6.54286 0.233453 6.58387 0.325125 6.5308C0.401116 6.48617 0.450571 6.36072 0.39026 6.28353C0.381817 6.27146 0.374579 6.25699 0.36493 6.24613C0.367342 6.24855 0.372167 6.27508 0.368548 6.25699C0.367342 6.25096 0.36493 6.24372 0.362517 6.23648C0.354074 6.20874 0.357692 6.2594 0.363723 6.23045C0.36493 6.22563 0.368548 6.20392 0.363723 6.22804C0.356486 6.25578 0.366136 6.22201 0.367342 6.2196C0.378198 6.20392 0.362517 6.22925 0.361311 6.23166C0.36493 6.22563 0.367342 6.2196 0.370961 6.21357C0.374579 6.20754 0.378198 6.20271 0.381817 6.19668C0.378198 6.20271 0.372167 6.2208 0.374579 6.20754C0.375786 6.20392 0.386642 6.19668 0.389054 6.19306C0.384229 6.19789 0.373373 6.21357 0.379404 6.2015C0.381817 6.19789 0.393879 6.19427 0.397497 6.19186C0.386642 6.19909 0.373373 6.2015 0.393879 6.19547C0.424034 6.18582 0.370961 6.19306 0.404735 6.19427C0.405941 6.19427 0.405941 6.19427 0.407147 6.19427C0.410766 6.19427 0.415591 6.19427 0.419209 6.19427C0.465045 6.19427 0.512087 6.19427 0.557923 6.19427C0.771422 6.19427 0.986128 6.19427 1.19963 6.19427C1.52772 6.19427 1.8558 6.19427 2.18389 6.19427C2.57471 6.19427 2.96552 6.19427 3.35633 6.19427C3.75438 6.19427 4.15122 6.19427 4.54927 6.19427C4.89786 6.19427 5.24767 6.19427 5.59626 6.19427C5.84233 6.19427 6.08839 6.19427 6.33446 6.19427C6.4008 6.19427 6.46835 6.19427 6.53469 6.19427C6.55158 6.19427 6.56846 6.19427 6.58414 6.19427C6.58776 6.19427 6.59138 6.19427 6.59621 6.19427C6.59741 6.19427 6.59741 6.19427 6.59862 6.19427C6.60344 6.19427 6.60948 6.19547 6.6143 6.19427C6.57329 6.19547 6.63239 6.20271 6.6143 6.19547C6.58656 6.18462 6.64687 6.21719 6.62154 6.19909C6.59621 6.181 6.64807 6.22804 6.62757 6.20392C6.61189 6.18582 6.63481 6.2196 6.63842 6.22442C6.64928 6.2389 6.6336 6.21598 6.6336 6.21236C6.63481 6.2196 6.63722 6.23166 6.64084 6.23769C6.64084 6.23769 6.63722 6.2015 6.63842 6.22322C6.63842 6.22925 6.63722 6.23769 6.63842 6.24372C6.63722 6.2401 6.64807 6.21115 6.64084 6.22925C6.63842 6.23528 6.63722 6.24372 6.63601 6.24975C6.63481 6.25458 6.62516 6.27267 6.63481 6.25458C6.64566 6.23407 6.63119 6.25578 6.63119 6.2582C6.63119 6.26543 6.60706 6.28353 6.63239 6.2582C6.69873 6.19306 6.64446 6.24372 6.64204 6.24613C6.63481 6.25217 6.62998 6.26181 6.62395 6.26905C6.58415 6.3173 6.54313 6.36676 6.50333 6.415C6.33446 6.61885 6.1668 6.82391 5.99793 7.02776C5.7591 7.31725 5.52027 7.60674 5.28144 7.89743C5.02934 8.20381 4.77604 8.51019 4.52394 8.81657C4.31406 9.07108 4.10418 9.32559 3.8943 9.5801C3.78333 9.71399 3.67356 9.84908 3.56259 9.98297C3.55656 9.99021 3.55173 9.99624 3.5457 10.0035C3.53847 10.0119 3.53123 10.0192 3.52279 10.0276C3.54329 10.0083 3.51917 10.0288 3.50711 10.0348C3.53485 10.0216 3.5059 10.0324 3.49263 10.0348C3.49504 10.0348 3.52399 10.0312 3.50349 10.0312C3.47574 10.0312 3.53364 10.0336 3.5059 10.0336C3.49866 10.0336 3.49022 10.03 3.48419 10.0276C3.4866 10.0276 3.51193 10.0397 3.49142 10.0312C3.48419 10.0276 3.47816 10.024 3.47092 10.0192C3.47454 10.0216 3.49022 10.0373 3.47695 10.0228C3.47092 10.0167 3.46489 10.0107 3.46006 10.0035C3.43594 9.97573 3.41302 9.94558 3.3889 9.91663C3.24415 9.74052 3.0982 9.56442 2.95346 9.38831C2.72548 9.11209 2.49751 8.83466 2.26953 8.55844C2.01502 8.24965 1.76051 7.94086 1.506 7.63207C1.28165 7.35947 1.05729 7.08807 0.832939 6.81547C0.695431 6.6478 0.557923 6.48134 0.419209 6.31368C0.39991 6.29076 0.381817 6.26785 0.362517 6.24493C0.299794 6.16894 0.17073 6.181 0.106801 6.24493C0.0308099 6.31971 0.0428719 6.42586 0.105595 6.50185Z" fill="white"/>
</svg>
