<svg width="16" height="16" viewBox="0 0 16 16" fill="none" xmlns="http://www.w3.org/2000/svg">
<g clip-path="url(#clip0_5614_3393)">
<path d="M7.99935 2C7.26602 2 6.66602 2.6 6.66602 3.33333C6.66602 4.06667 7.26602 4.66667 7.99935 4.66667C8.73268 4.66667 9.33268 4.06667 9.33268 3.33333C9.33268 2.6 8.73268 2 7.99935 2ZM7.99935 11.3333C7.26602 11.3333 6.66602 11.9333 6.66602 12.6667C6.66602 13.4 7.26602 14 7.99935 14C8.73268 14 9.33268 13.4 9.33268 12.6667C9.33268 11.9333 8.73268 11.3333 7.99935 11.3333ZM7.99935 6.66667C7.26602 6.66667 6.66602 7.26667 6.66602 8C6.66602 8.73333 7.26602 9.33333 7.99935 9.33333C8.73268 9.33333 9.33268 8.73333 9.33268 8C9.33268 7.26667 8.73268 6.66667 7.99935 6.66667Z" fill="#4F4F4F"/>
</g>
<defs>
<clipPath id="clip0_5614_3393">
<rect width="16" height="16" fill="white"/>
</clipPath>
</defs>
</svg>
