<svg width="124" height="124" viewBox="0 0 124 124" fill="none" xmlns="http://www.w3.org/2000/svg">
<g clip-path="url(#clip0_5622_168)">
<path d="M91.026 30.835L98.5332 23.3278L105.839 30.6335L98.3317 38.1407C105.75 47.426 109.331 59.1994 108.34 71.0427C107.349 82.8861 101.861 93.9004 93.0022 101.824C84.1439 109.747 72.5881 113.978 60.708 113.647C48.8279 113.316 37.5253 108.449 29.1215 100.045C20.7177 91.6415 15.8507 80.3389 15.52 68.4588C15.1893 56.5786 19.4199 45.0228 27.3432 36.1645C35.2664 27.3062 46.2807 21.8179 58.124 20.8268C69.9674 19.8356 81.7407 23.4169 91.026 30.835ZM61.9997 103.334C66.7492 103.334 71.4522 102.398 75.8401 100.581C80.228 98.7632 84.215 96.0991 87.5734 92.7407C90.9318 89.3824 93.5958 85.3954 95.4133 81.0074C97.2309 76.6195 98.1664 71.9165 98.1664 67.167C98.1664 62.4176 97.2309 57.7146 95.4133 53.3266C93.5958 48.9387 90.9318 44.9517 87.5734 41.5933C84.215 38.2349 80.228 35.5709 75.8401 33.7534C71.4522 31.9358 66.7492 31.0003 61.9997 31.0003C52.4077 31.0003 43.2086 34.8108 36.426 41.5933C29.6435 48.3759 25.8331 57.575 25.8331 67.167C25.8331 76.759 29.6435 85.9582 36.426 92.7407C43.2086 99.5233 52.4077 103.334 61.9997 103.334ZM56.833 41.3337H67.1664V72.3337H56.833V41.3337ZM41.3331 5.16699H82.6664V15.5003H41.3331V5.16699Z" fill="#2B3C4E"/>
</g>
<defs>
<clipPath id="clip0_5622_168">
<rect width="124" height="124" fill="white"/>
</clipPath>
</defs>
</svg>
