<svg width="8" height="8" viewBox="0 0 8 8" fill="none" xmlns="http://www.w3.org/2000/svg">
<path d="M4.73292 4.00006L7.84796 0.884861C8.05068 0.68223 8.05068 0.354604 7.84796 0.151973C7.64533 -0.0506577 7.31771 -0.0506577 7.11509 0.151973L3.99995 3.26717L0.884913 0.151973C0.682192 -0.0506577 0.354668 -0.0506577 0.152041 0.151973C-0.0506804 0.354604 -0.0506804 0.68223 0.152041 0.884861L3.26708 4.00006L0.152041 7.11526C-0.0506804 7.31789 -0.0506804 7.64551 0.152041 7.84815C0.253022 7.94922 0.385797 8 0.518477 8C0.651157 8 0.783837 7.94922 0.884913 7.84815L3.99995 4.73295L7.11509 7.84815C7.21616 7.94922 7.34884 8 7.48152 8C7.6142 8 7.74688 7.94922 7.84796 7.84815C8.05068 7.64551 8.05068 7.31789 7.84796 7.11526L4.73292 4.00006Z" fill="#FF5722"/>
</svg>
